<?xml version="1.0" standalone="yes"?>

<svg version="1.1" viewBox="0.0 0.0 960.0 540.0" fill="none" stroke="none" stroke-linecap="square" stroke-miterlimit="10" xmlns="http://www.w3.org/2000/svg" xmlns:xlink="http://www.w3.org/1999/xlink"><clipPath id="g1030cf381b_0_24.0"><path d="m0 0l960.0 0l0 540.0l-960.0 0l0 -540.0z" clip-rule="nonzero"></path></clipPath><g clip-path="url(#g1030cf381b_0_24.0)"><path fill="#ffffff" d="m0 0l960.0 0l0 540.0l-960.0 0z" fill-rule="nonzero"></path><path stroke="#9e9e9e" stroke-width="1.0" stroke-linecap="butt" d="m418.5971 163.9672l0 56.866135" fill-rule="nonzero"></path><path stroke="#9e9e9e" stroke-width="1.0" stroke-linecap="butt" d="m810.46063 163.9672l0 56.866135" fill-rule="nonzero"></path><path stroke="#9e9e9e" stroke-width="1.0" stroke-linecap="butt" d="m418.09842 164.46588l392.86087 0" fill-rule="nonzero"></path><path stroke="#9e9e9e" stroke-width="1.0" stroke-linecap="butt" d="m418.09842 220.33464l392.86087 0" fill-rule="nonzero"></path><path fill="#000000" d="m473.7663 182.98775l0 2.75l-2.546875 0l0 -2.171875q0 -1.765625 0.421875 -2.5625q0.546875 -1.046875 1.75 -1.59375l0.578125 0.921875q-0.71875 0.296875 -1.0625 0.90625q-0.34375 0.59375 -0.375 1.75l1.234375 0zm4.078125 0l0 2.75l-2.53125 0l0 -2.171875q0 -1.765625 0.421875 -2.5625q0.546875 -1.046875 1.75 -1.59375l0.578125 0.921875q-0.71875 0.296875 -1.0625 0.90625q-0.34375 0.59375 -0.390625 1.75l1.234375 0zm8.1579895 16.078125l0 -17.046875l-6.359375 0l0 -2.28125l15.3125 0l0 2.28125l-6.390625 0l0 17.046875l-2.5625 0zm20.23581 0l0 -2.0625q-1.625 2.375 -4.4375 2.375q-1.234375 0 -2.3125 -0.46875q-1.078125 -0.484375 -1.609375 -1.1875q-0.515625 -0.71875 -0.71875 -1.765625q-0.140625 -0.703125 -0.140625 -2.21875l0 -8.671875l2.359375 0l0 7.765625q0 1.859375 0.15625 2.5q0.21875 0.9375 0.9375 1.46875q0.734375 0.53125 1.796875 0.53125q1.078125 0 2.0 -0.546875q0.9375 -0.546875 1.328125 -1.484375q0.390625 -0.9375 0.390625 -2.734375l0 -7.5l2.375 0l0 14.0l-2.125 0zm5.621826 0l0 -14.0l2.140625 0l0 2.125q0.8125 -1.5 1.5 -1.96875q0.703125 -0.46875 1.53125 -0.46875q1.203125 0 2.4375 0.765625l-0.8125 2.203125q-0.875 -0.515625 -1.75 -0.515625q-0.765625 0 -1.390625 0.46875q-0.625 0.46875 -0.890625 1.296875q-0.390625 1.265625 -0.390625 2.765625l0 7.328125l-2.375 0zm14.095459 -2.125l0.328125 2.09375q-1.0 0.21875 -1.78125 0.21875q-1.296875 0 -2.015625 -0.40625q-0.703125 -0.421875 -1.0 -1.078125q-0.28125 -0.671875 -0.28125 -2.796875l0 -8.0625l-1.75 0l0 -1.84375l1.75 0l0 -3.46875l2.359375 -1.421875l0 4.890625l2.390625 0l0 1.84375l-2.390625 0l0 8.1875q0 1.015625 0.125 1.3125q0.125 0.28125 0.40625 0.453125q0.28125 0.171875 0.8125 0.171875q0.390625 0 1.046875 -0.09375zm2.1716309 2.125l0 -19.328125l2.359375 0l0 19.328125l-2.359375 0zm15.547119 -4.515625l2.453125 0.3125q-0.578125 2.140625 -2.15625 3.328125q-1.5625 1.1875 -4.0 1.1875q-3.0625 0 -4.875 -1.890625q-1.796875 -1.890625 -1.796875 -5.296875q0 -3.546875 1.8125 -5.484375q1.828125 -1.953125 4.734375 -1.953125q2.8125 0 4.578125 1.90625q1.78125 1.90625 1.78125 5.375q0 0.21875 -0.015625 0.640625l-10.4375 0q0.140625 2.296875 1.3125 3.53125q1.171875 1.21875 2.921875 1.21875q1.3125 0 2.234375 -0.671875q0.921875 -0.6875 1.453125 -2.203125zm-7.78125 -3.828125l7.8125 0q-0.15625 -1.765625 -0.890625 -2.65625q-1.140625 -1.359375 -2.953125 -1.359375q-1.625 0 -2.75 1.09375q-1.109375 1.09375 -1.21875 2.921875zm12.074951 4.171875l2.34375 -0.375q0.203125 1.40625 1.109375 2.15625q0.90625 0.75 2.515625 0.75q1.640625 0 2.421875 -0.65625q0.796875 -0.671875 0.796875 -1.5625q0 -0.8125 -0.6875 -1.265625q-0.5 -0.3125 -2.4375 -0.8125q-2.609375 -0.65625 -3.625 -1.125q-1.0 -0.484375 -1.53125 -1.328125q-0.515625 -0.859375 -0.515625 -1.890625q0 -0.9375 0.421875 -1.734375q0.4375 -0.796875 1.1875 -1.328125q0.546875 -0.40625 1.5 -0.6875q0.953125 -0.28125 2.046875 -0.28125q1.65625 0 2.890625 0.46875q1.25 0.46875 1.84375 1.28125q0.59375 0.8125 0.828125 2.171875l-2.328125 0.3125q-0.15625 -1.078125 -0.921875 -1.671875q-0.75 -0.609375 -2.140625 -0.609375q-1.625 0 -2.328125 0.546875q-0.703125 0.53125 -0.703125 1.25q0 0.46875 0.296875 0.828125q0.28125 0.390625 0.90625 0.640625q0.359375 0.125 2.09375 0.609375q2.515625 0.671875 3.515625 1.09375q1.0 0.421875 1.5625 1.25q0.5625 0.8125 0.5625 2.03125q0 1.1875 -0.6875 2.234375q-0.6875 1.046875 -2.0 1.625q-1.296875 0.5625 -2.953125 0.5625q-2.71875 0 -4.15625 -1.125q-1.4375 -1.140625 -1.828125 -3.359375zm13.640625 -12.59375l0 -2.765625l2.546875 0l0 2.1875q0 1.765625 -0.40625 2.53125q-0.5625 1.078125 -1.765625 1.609375l-0.578125 -0.9375q0.703125 -0.28125 1.046875 -0.90625q0.359375 -0.625 0.40625 -1.71875l-1.25 0zm4.09375 0l0 -2.765625l2.546875 0l0 2.1875q0 1.765625 -0.40625 2.53125q-0.578125 1.078125 -1.765625 1.609375l-0.59375 -0.9375q0.71875 -0.28125 1.0625 -0.90625q0.359375 -0.625 0.390625 -1.71875l-1.234375 0zm6.048645 16.765625l0 -2.703125l2.703125 0l0 2.703125q0 1.484375 -0.53125 2.40625q-0.53125 0.921875 -1.671875 1.421875l-0.671875 -1.015625q0.765625 -0.328125 1.109375 -0.96875q0.359375 -0.640625 0.40625 -1.84375l-1.34375 0zm16.046265 -16.078125l0 2.75l-2.546875 0l0 -2.171875q0 -1.765625 0.421875 -2.5625q0.546875 -1.046875 1.75 -1.59375l0.578125 0.921875q-0.71875 0.296875 -1.0625 0.90625q-0.34375 0.59375 -0.375 1.75l1.234375 0zm4.078125 0l0 2.75l-2.53125 0l0 -2.171875q0 -1.765625 0.421875 -2.5625q0.546875 -1.046875 1.75 -1.59375l0.578125 0.921875q-0.71875 0.296875 -1.0625 0.90625q-0.34375 0.59375 -0.390625 1.75l1.234375 0zm2.892395 16.078125l0 -19.328125l2.359375 0l0 19.328125l-2.359375 0zm5.078369 -7.0q0 -3.890625 2.171875 -5.765625q1.796875 -1.546875 4.40625 -1.546875q2.875 0 4.703125 1.890625q1.84375 1.890625 1.84375 5.21875q0 2.703125 -0.8125 4.265625q-0.8125 1.546875 -2.359375 2.40625q-1.546875 0.84375 -3.375 0.84375q-2.953125 0 -4.765625 -1.875q-1.8125 -1.890625 -1.8125 -5.4375zm2.4375 0q0 2.6875 1.171875 4.03125q1.1875 1.328125 2.96875 1.328125q1.765625 0 2.9375 -1.34375q1.171875 -1.34375 1.171875 -4.09375q0 -2.59375 -1.1875 -3.9375q-1.171875 -1.34375 -2.921875 -1.34375q-1.78125 0 -2.96875 1.34375q-1.171875 1.328125 -1.171875 4.015625zm17.168701 7.0l-5.328125 -14.0l2.5 0l3.015625 8.390625q0.484375 1.34375 0.890625 2.8125q0.3125 -1.109375 0.890625 -2.65625l3.109375 -8.546875l2.4375 0l-5.296875 14.0l-2.21875 0zm19.015625 -4.515625l2.453125 0.3125q-0.578125 2.140625 -2.15625 3.328125q-1.5625 1.1875 -4.0 1.1875q-3.0625 0 -4.875 -1.890625q-1.796875 -1.890625 -1.796875 -5.296875q0 -3.546875 1.8125 -5.484375q1.828125 -1.953125 4.734375 -1.953125q2.8125 0 4.578125 1.90625q1.78125 1.90625 1.78125 5.375q0 0.21875 -0.015625 0.640625l-10.4375 0q0.140625 2.296875 1.3125 3.53125q1.171875 1.21875 2.921875 1.21875q1.3125 0 2.234375 -0.671875q0.921875 -0.6875 1.453125 -2.203125zm-7.78125 -3.828125l7.8125 0q-0.15625 -1.765625 -0.890625 -2.65625q-1.140625 -1.359375 -2.953125 -1.359375q-1.625 0 -2.75 1.09375q-1.109375 1.09375 -1.21875 2.921875zm12.074951 4.171875l2.34375 -0.375q0.203125 1.40625 1.109375 2.15625q0.90625 0.75 2.515625 0.75q1.640625 0 2.421875 -0.65625q0.796875 -0.671875 0.796875 -1.5625q0 -0.8125 -0.6875 -1.265625q-0.5 -0.3125 -2.4375 -0.8125q-2.609375 -0.65625 -3.625 -1.125q-1.0 -0.484375 -1.53125 -1.328125q-0.515625 -0.859375 -0.515625 -1.890625q0 -0.9375 0.421875 -1.734375q0.4375 -0.796875 1.1875 -1.328125q0.546875 -0.40625 1.5 -0.6875q0.953125 -0.28125 2.046875 -0.28125q1.65625 0 2.890625 0.46875q1.25 0.46875 1.84375 1.28125q0.59375 0.8125 0.828125 2.171875l-2.328125 0.3125q-0.15625 -1.078125 -0.921875 -1.671875q-0.75 -0.609375 -2.140625 -0.609375q-1.625 0 -2.328125 0.546875q-0.703125 0.53125 -0.703125 1.25q0 0.46875 0.296875 0.828125q0.28125 0.390625 0.90625 0.640625q0.359375 0.125 2.09375 0.609375q2.515625 0.671875 3.515625 1.09375q1.0 0.421875 1.5625 1.25q0.5625 0.8125 0.5625 2.03125q0 1.1875 -0.6875 2.234375q-0.6875 1.046875 -2.0 1.625q-1.296875 0.5625 -2.953125 0.5625q-2.71875 0 -4.15625 -1.125q-1.4375 -1.140625 -1.828125 -3.359375zm13.640625 -12.59375l0 -2.765625l2.546875 0l0 2.1875q0 1.765625 -0.40625 2.53125q-0.5625 1.078125 -1.765625 1.609375l-0.578125 -0.9375q0.703125 -0.28125 1.046875 -0.90625q0.359375 -0.625 0.40625 -1.71875l-1.25 0zm4.09375 0l0 -2.765625l2.546875 0l0 2.1875q0 1.765625 -0.40625 2.53125q-0.578125 1.078125 -1.765625 1.609375l-0.59375 -0.9375q0.71875 -0.28125 1.0625 -0.90625q0.359375 -0.625 0.390625 -1.71875l-1.234375 0zm6.048584 16.765625l0 -2.703125l2.703125 0l0 2.703125q0 1.484375 -0.53125 2.40625q-0.53125 0.921875 -1.671875 1.421875l-0.671875 -1.015625q0.765625 -0.328125 1.109375 -0.96875q0.359375 -0.640625 0.40625 -1.84375l-1.34375 0zm16.046326 -16.078125l0 2.75l-2.546875 0l0 -2.171875q0 -1.765625 0.421875 -2.5625q0.546875 -1.046875 1.75 -1.59375l0.578125 0.921875q-0.71875 0.296875 -1.0625 0.90625q-0.34375 0.59375 -0.375 1.75l1.234375 0zm4.078125 0l0 2.75l-2.53125 0l0 -2.171875q0 -1.765625 0.421875 -2.5625q0.546875 -1.046875 1.75 -1.59375l0.578125 0.921875q-0.71875 0.296875 -1.0625 0.90625q-0.34375 0.59375 -0.390625 1.75l1.234375 0zm2.939209 21.4375l0 -19.359375l2.15625 0l0 1.8125q0.765625 -1.0625 1.71875 -1.59375q0.96875 -0.53125 2.34375 -0.53125q1.796875 0 3.15625 0.921875q1.375 0.921875 2.078125 2.609375q0.703125 1.671875 0.703125 3.671875q0 2.15625 -0.78125 3.875q-0.765625 1.71875 -2.234375 2.640625q-1.46875 0.90625 -3.09375 0.90625q-1.1875 0 -2.125 -0.5q-0.9375 -0.5 -1.546875 -1.265625l0 6.8125l-2.375 0zm2.140625 -12.28125q0 2.703125 1.09375 4.0q1.109375 1.28125 2.65625 1.28125q1.578125 0 2.703125 -1.328125q1.140625 -1.34375 1.140625 -4.15625q0 -2.671875 -1.109375 -4.0q-1.09375 -1.328125 -2.625 -1.328125q-1.515625 0 -2.6875 1.421875q-1.171875 1.40625 -1.171875 4.109375zm12.699951 -9.671875l0 -2.734375l2.375 0l0 2.734375l-2.375 0zm0 16.59375l0 -14.0l2.375 0l0 14.0l-2.375 0zm4.656555 0l0 -1.921875l8.90625 -10.234375q-1.515625 0.078125 -2.671875 0.078125l-5.703125 0l0 -1.921875l11.4375 0l0 1.5625l-7.578125 8.890625l-1.46875 1.625q1.59375 -0.125 3.0 -0.125l6.46875 0l0 2.046875l-12.390625 0zm13.328125 0l0 -1.921875l8.90625 -10.234375q-1.515625 0.078125 -2.671875 0.078125l-5.703125 0l0 -1.921875l11.4375 0l0 1.5625l-7.578125 8.890625l-1.46875 1.625q1.59375 -0.125 3.0 -0.125l6.46875 0l0 2.046875l-12.390625 0zm23.71875 -1.734375q-1.328125 1.125 -2.546875 1.59375q-1.21875 0.453125 -2.609375 0.453125q-2.3125 0 -3.5625 -1.125q-1.234375 -1.125 -1.234375 -2.875q0 -1.03125 0.46875 -1.875q0.46875 -0.859375 1.21875 -1.375q0.765625 -0.515625 1.71875 -0.78125q0.703125 -0.171875 2.109375 -0.34375q2.875 -0.34375 4.234375 -0.828125q0.015625 -0.484375 0.015625 -0.609375q0 -1.453125 -0.671875 -2.046875q-0.90625 -0.8125 -2.703125 -0.8125q-1.671875 0 -2.46875 0.59375q-0.796875 0.578125 -1.1875 2.078125l-2.3125 -0.3125q0.3125 -1.5 1.03125 -2.40625q0.734375 -0.921875 2.09375 -1.40625q1.375 -0.5 3.1875 -0.5q1.796875 0 2.90625 0.421875q1.125 0.421875 1.640625 1.0625q0.53125 0.640625 0.75 1.609375q0.125 0.609375 0.125 2.1875l0 3.171875q0 3.296875 0.140625 4.1875q0.15625 0.875 0.609375 1.671875l-2.484375 0q-0.375 -0.734375 -0.46875 -1.734375zm-0.203125 -5.296875q-1.296875 0.53125 -3.875 0.90625q-1.46875 0.203125 -2.078125 0.46875q-0.59375 0.265625 -0.9375 0.78125q-0.328125 0.5 -0.328125 1.125q0 0.9375 0.71875 1.578125q0.71875 0.625 2.109375 0.625q1.375 0 2.4375 -0.59375q1.0625 -0.609375 1.578125 -1.640625q0.375 -0.8125 0.375 -2.375l0 -0.875zm5.246826 -9.734375l0 -2.765625l2.546875 0l0 2.1875q0 1.765625 -0.40625 2.53125q-0.5625 1.078125 -1.765625 1.609375l-0.578125 -0.9375q0.703125 -0.28125 1.046875 -0.90625q0.359375 -0.625 0.40625 -1.71875l-1.25 0zm4.09375 0l0 -2.765625l2.546875 0l0 2.1875q0 1.765625 -0.40625 2.53125q-0.578125 1.078125 -1.765625 1.609375l-0.59375 -0.9375q0.71875 -0.28125 1.0625 -0.90625q0.359375 -0.625 0.390625 -1.71875l-1.234375 0z" fill-rule="nonzero"></path><path fill="#000000" fill-opacity="0.0" d="m38.526245 45.74803l282.74017 0l0 88.566925l-282.74017 0z" fill-rule="nonzero"></path><path fill="#000000" d="m64.293175 83.55337l0 2.75l-2.546875 0l0 -2.171875q0 -1.765625 0.421875 -2.5625q0.546875 -1.046875 1.75 -1.59375l0.578125 0.921875q-0.71875 0.296875 -1.0625 0.90625q-0.34375 0.59375 -0.375 1.75l1.234375 0zm4.078125 0l0 2.75l-2.53125 0l0 -2.171875q0 -1.765625 0.421875 -2.5625q0.546875 -1.046875 1.75 -1.59375l0.578125 0.921875q-0.71875 0.296875 -1.0625 0.90625q-0.34375 0.59375 -0.390625 1.75l1.234375 0zm8.1579895 16.078125l0 -17.046875l-6.359375 0l0 -2.28125l15.3125 0l0 2.28125l-6.390625 0l0 17.046875l-2.5625 0zm20.235825 0l0 -2.0625q-1.625 2.375 -4.4375 2.375q-1.234375 0 -2.3125 -0.46875q-1.078125 -0.484375 -1.609375 -1.1875q-0.515625 -0.71875 -0.71875 -1.765625q-0.140625 -0.703125 -0.140625 -2.21875l0 -8.671875l2.359375 0l0 7.765625q0 1.859375 0.15625 2.5q0.21875 0.9375 0.9375 1.46875q0.734375 0.53125 1.796875 0.53125q1.078125 0 2.0 -0.546875q0.9375 -0.546875 1.328125 -1.484375q0.390625 -0.9375 0.390625 -2.734375l0 -7.5l2.375 0l0 14.0l-2.125 0zm5.621811 0l0 -14.0l2.140625 0l0 2.125q0.8125 -1.5 1.5 -1.96875q0.703125 -0.46875 1.53125 -0.46875q1.203125 0 2.4375 0.765625l-0.8125 2.203125q-0.875 -0.515625 -1.75 -0.515625q-0.765625 0 -1.390625 0.46875q-0.625 0.46875 -0.890625 1.296875q-0.390625 1.265625 -0.390625 2.765625l0 7.328125l-2.375 0zm14.0954895 -2.125l0.328125 2.09375q-1.0 0.21875 -1.78125 0.21875q-1.296875 0 -2.015625 -0.40625q-0.703125 -0.421875 -1.0 -1.078125q-0.28125 -0.671875 -0.28125 -2.796875l0 -8.0625l-1.75 0l0 -1.84375l1.75 0l0 -3.46875l2.359375 -1.421875l0 4.890625l2.390625 0l0 1.84375l-2.390625 0l0 8.1875q0 1.015625 0.125 1.3125q0.125 0.28125 0.40625 0.453125q0.28125 0.171875 0.8125 0.171875q0.390625 0 1.046875 -0.09375zm2.171585 2.125l0 -19.328125l2.359375 0l0 19.328125l-2.359375 0zm15.547173 -4.515625l2.453125 0.3125q-0.578125 2.140625 -2.15625 3.328125q-1.5625 1.1875 -4.0 1.1875q-3.0625076 0 -4.8750076 -1.890625q-1.796875 -1.890625 -1.796875 -5.296875q0 -3.546875 1.8125 -5.484375q1.828125 -1.953125 4.7343826 -1.953125q2.8125 0 4.578125 1.90625q1.78125 1.90625 1.78125 5.375q0 0.21875 -0.015625 0.640625l-10.437508 0q0.140625 2.296875 1.3125 3.53125q1.1718826 1.21875 2.9218826 1.21875q1.3125 0 2.234375 -0.671875q0.921875 -0.6875 1.453125 -2.203125zm-7.7812576 -3.828125l7.8125076 0q-0.15625 -1.765625 -0.890625 -2.65625q-1.140625 -1.359375 -2.953125 -1.359375q-1.625 0 -2.7500076 1.09375q-1.109375 1.09375 -1.21875 2.921875zm12.074944 4.171875l2.34375 -0.375q0.203125 1.40625 1.109375 2.15625q0.90625 0.75 2.515625 0.75q1.640625 0 2.421875 -0.65625q0.796875 -0.671875 0.796875 -1.5625q0 -0.8125 -0.6875 -1.265625q-0.5 -0.3125 -2.4375 -0.8125q-2.609375 -0.65625 -3.625 -1.125q-1.0 -0.484375 -1.53125 -1.328125q-0.515625 -0.859375 -0.515625 -1.890625q0 -0.9375 0.421875 -1.734375q0.4375 -0.796875 1.1875 -1.328125q0.546875 -0.40625 1.5 -0.6875q0.953125 -0.28125 2.046875 -0.28125q1.65625 0 2.890625 0.46875q1.25 0.46875 1.84375 1.28125q0.59375 0.8125 0.828125 2.171875l-2.328125 0.3125q-0.15625 -1.078125 -0.921875 -1.671875q-0.75 -0.609375 -2.140625 -0.609375q-1.625 0 -2.328125 0.546875q-0.703125 0.53125 -0.703125 1.25q0 0.46875 0.296875 0.828125q0.28125 0.390625 0.90625 0.640625q0.359375 0.125 2.09375 0.609375q2.515625 0.671875 3.515625 1.09375q1.0 0.421875 1.5625 1.25q0.5625 0.8125 0.5625 2.03125q0 1.1875 -0.6875 2.234375q-0.6875 1.046875 -2.0 1.625q-1.296875 0.5625 -2.953125 0.5625q-2.71875 0 -4.15625 -1.125q-1.4375 -1.140625 -1.828125 -3.359375zm21.640335 4.171875l0 -19.328125l2.359375 0l0 19.328125l-2.359375 0zm5.078415 -7.0q0 -3.890625 2.1718597 -5.765625q1.796875 -1.546875 4.40625 -1.546875q2.875 0 4.703125 1.890625q1.84375 1.890625 1.84375 5.21875q0 2.703125 -0.8125 4.265625q-0.8125 1.546875 -2.359375 2.40625q-1.546875 0.84375 -3.375 0.84375q-2.953125 0 -4.765625 -1.875q-1.8124847 -1.890625 -1.8124847 -5.4375zm2.4374847 0q0 2.6875 1.171875 4.03125q1.1875 1.328125 2.96875 1.328125q1.765625 0 2.9375 -1.34375q1.171875 -1.34375 1.171875 -4.09375q0 -2.59375 -1.1875 -3.9375q-1.171875 -1.34375 -2.921875 -1.34375q-1.78125 0 -2.96875 1.34375q-1.171875 1.328125 -1.171875 4.015625zm17.168701 7.0l-5.328125 -14.0l2.5 0l3.015625 8.390625q0.484375 1.34375 0.890625 2.8125q0.3125 -1.109375 0.890625 -2.65625l3.109375 -8.546875l2.4375 0l-5.296875 14.0l-2.21875 0zm19.015625 -4.515625l2.453125 0.3125q-0.578125 2.140625 -2.15625 3.328125q-1.5625 1.1875 -4.0 1.1875q-3.0625 0 -4.875 -1.890625q-1.796875 -1.890625 -1.796875 -5.296875q0 -3.546875 1.8125 -5.484375q1.828125 -1.953125 4.734375 -1.953125q2.8125 0 4.578125 1.90625q1.78125 1.90625 1.78125 5.375q0 0.21875 -0.015625 0.640625l-10.4375 0q0.140625 2.296875 1.3125 3.53125q1.171875 1.21875 2.921875 1.21875q1.3125 0 2.234375 -0.671875q0.921875 -0.6875 1.453125 -2.203125zm-7.78125 -3.828125l7.8125 0q-0.15625 -1.765625 -0.890625 -2.65625q-1.140625 -1.359375 -2.953125 -1.359375q-1.625 0 -2.75 1.09375q-1.109375 1.09375 -1.21875 2.921875zm12.074921 4.171875l2.34375 -0.375q0.203125 1.40625 1.109375 2.15625q0.90625 0.75 2.515625 0.75q1.640625 0 2.421875 -0.65625q0.796875 -0.671875 0.796875 -1.5625q0 -0.8125 -0.6875 -1.265625q-0.5 -0.3125 -2.4375 -0.8125q-2.609375 -0.65625 -3.625 -1.125q-1.0 -0.484375 -1.53125 -1.328125q-0.515625 -0.859375 -0.515625 -1.890625q0 -0.9375 0.421875 -1.734375q0.4375 -0.796875 1.1875 -1.328125q0.546875 -0.40625 1.5 -0.6875q0.953125 -0.28125 2.046875 -0.28125q1.65625 0 2.890625 0.46875q1.25 0.46875 1.84375 1.28125q0.59375 0.8125 0.828125 2.171875l-2.328125 0.3125q-0.15625 -1.078125 -0.921875 -1.671875q-0.75 -0.609375 -2.140625 -0.609375q-1.625 0 -2.328125 0.546875q-0.703125 0.53125 -0.703125 1.25q0 0.46875 0.296875 0.828125q0.28125 0.390625 0.90625 0.640625q0.359375 0.125 2.09375 0.609375q2.515625 0.671875 3.515625 1.09375q1.0 0.421875 1.5625 1.25q0.5625 0.8125 0.5625 2.03125q0 1.1875 -0.6875 2.234375q-0.6875 1.046875 -2.0 1.625q-1.296875 0.5625 -2.953125 0.5625q-2.71875 0 -4.15625 -1.125q-1.4375 -1.140625 -1.828125 -3.359375zm21.687225 9.53125l0 -19.359375l2.15625 0l0 1.8125q0.765625 -1.0625 1.71875 -1.59375q0.96875 -0.53125 2.34375 -0.53125q1.796875 0 3.15625 0.921875q1.375 0.921875 2.078125 2.609375q0.703125 1.671875 0.703125 3.671875q0 2.15625 -0.78125 3.875q-0.765625 1.71875 -2.234375 2.640625q-1.46875 0.90625 -3.09375 0.90625q-1.1875 0 -2.125 -0.5q-0.9375 -0.5 -1.546875 -1.265625l0 6.8125l-2.375 0zm2.140625 -12.28125q0 2.703125 1.09375 4.0q1.109375 1.28125 2.65625 1.28125q1.578125 0 2.703125 -1.328125q1.140625 -1.34375 1.140625 -4.15625q0 -2.671875 -1.109375 -4.0q-1.09375 -1.328125 -2.625 -1.328125q-1.515625 0 -2.6875 1.421875q-1.171875 1.40625 -1.171875 4.109375zm12.699921 -9.671875l0 -2.734375l2.375 0l0 2.734375l-2.375 0zm0 16.59375l0 -14.0l2.375 0l0 14.0l-2.375 0zm4.656555 0l0 -1.921875l8.90625 -10.234375q-1.515625 0.078125 -2.671875 0.078125l-5.703125 0l0 -1.921875l11.4375 0l0 1.5625l-7.578125 8.890625l-1.46875 1.625q1.59375 -0.125 3.0 -0.125l6.46875 0l0 2.046875l-12.390625 0zm13.328125 0l0 -1.921875l8.90625 -10.234375q-1.515625 0.078125 -2.671875 0.078125l-5.703125 0l0 -1.921875l11.4375 0l0 1.5625l-7.578125 8.890625l-1.46875 1.625q1.59375 -0.125 3.0 -0.125l6.46875 0l0 2.046875l-12.390625 0zm23.71875 -1.734375q-1.328125 1.125 -2.546875 1.59375q-1.21875 0.453125 -2.609375 0.453125q-2.3125 0 -3.5625 -1.125q-1.234375 -1.125 -1.234375 -2.875q0 -1.03125 0.46875 -1.875q0.46875 -0.859375 1.21875 -1.375q0.765625 -0.515625 1.71875 -0.78125q0.703125 -0.171875 2.109375 -0.34375q2.875 -0.34375 4.234375 -0.828125q0.015625 -0.484375 0.015625 -0.609375q0 -1.453125 -0.671875 -2.046875q-0.90625 -0.8125 -2.703125 -0.8125q-1.671875 0 -2.46875 0.59375q-0.796875 0.578125 -1.1875 2.078125l-2.3125 -0.3125q0.3125 -1.5 1.03125 -2.40625q0.734375 -0.921875 2.09375 -1.40625q1.375 -0.5 3.1875 -0.5q1.796875 0 2.90625 0.421875q1.125 0.421875 1.640625 1.0625q0.53125 0.640625 0.75 1.609375q0.125 0.609375 0.125 2.1875l0 3.171875q0 3.296875 0.140625 4.1875q0.15625 0.875 0.609375 1.671875l-2.484375 0q-0.375 -0.734375 -0.46875 -1.734375zm-0.203125 -5.296875q-1.296875 0.53125 -3.875 0.90625q-1.46875 0.203125 -2.078125 0.46875q-0.59375 0.265625 -0.9375 0.78125q-0.328125 0.5 -0.328125 1.125q0 0.9375 0.71875 1.578125q0.71875 0.625 2.109375 0.625q1.375 0 2.4375 -0.59375q1.0625 -0.609375 1.578125 -1.640625q0.375 -0.8125 0.375 -2.375l0 -0.875zm5.2467957 -9.734375l0 -2.765625l2.546875 0l0 2.1875q0 1.765625 -0.40625 2.53125q-0.5625 1.078125 -1.765625 1.609375l-0.578125 -0.9375q0.703125 -0.28125 1.046875 -0.90625q0.359375 -0.625 0.40625 -1.71875l-1.25 0zm4.09375 0l0 -2.765625l2.546875 0l0 2.1875q0 1.765625 -0.40625 2.53125q-0.578125 1.078125 -1.765625 1.609375l-0.59375 -0.9375q0.71875 -0.28125 1.0625 -0.90625q0.359375 -0.625 0.390625 -1.71875l-1.234375 0z" fill-rule="nonzero"></path><path stroke="#9e9e9e" stroke-width="1.0" stroke-linecap="butt" d="m88.42388 163.9672l0 56.866135" fill-rule="nonzero"></path><path stroke="#9e9e9e" stroke-width="1.0" stroke-linecap="butt" d="m271.36615 163.9672l0 56.866135" fill-rule="nonzero"></path><path stroke="#9e9e9e" stroke-width="1.0" stroke-linecap="butt" d="m87.92519 164.46588l183.93964 0" fill-rule="nonzero"></path><path stroke="#9e9e9e" stroke-width="1.0" stroke-linecap="butt" d="m87.92519 220.33464l183.93964 0" fill-rule="nonzero"></path><path fill="#000000" d="m128.37622 199.06587l0 -17.046875l-6.3593826 0l0 -2.28125l15.312508 0l0 2.28125l-6.390625 0l0 17.046875l-2.5625 0zm10.173325 -7.0q0 -3.890625 2.171875 -5.765625q1.796875 -1.546875 4.40625 -1.546875q2.875 0 4.703125 1.890625q1.84375 1.890625 1.84375 5.21875q0 2.703125 -0.8125 4.265625q-0.8125 1.546875 -2.359375 2.40625q-1.546875 0.84375 -3.375 0.84375q-2.953125 0 -4.765625 -1.875q-1.8125 -1.890625 -1.8125 -5.4375zm2.4375 0q0 2.6875 1.171875 4.03125q1.1875 1.328125 2.96875 1.328125q1.765625 0 2.9375 -1.34375q1.171875 -1.34375 1.171875 -4.09375q0 -2.59375 -1.1875 -3.9375q-1.171875 -1.34375 -2.921875 -1.34375q-1.78125 0 -2.96875 1.34375q-1.171875 1.328125 -1.171875 4.015625zm13.293686 7.0l0 -19.328125l2.375 0l0 11.015625l5.609375 -5.6875l3.078125 0l-5.359375 5.1875l5.890625 8.8125l-2.921875 0l-4.625 -7.15625l-1.671875 1.609375l0 5.546875l-2.375 0zm22.890625 -4.515625l2.453125 0.3125q-0.578125 2.140625 -2.15625 3.328125q-1.5625 1.1875 -4.0 1.1875q-3.0625 0 -4.875 -1.890625q-1.796875 -1.890625 -1.796875 -5.296875q0 -3.546875 1.8125 -5.484375q1.828125 -1.953125 4.734375 -1.953125q2.8125 0 4.578125 1.90625q1.78125 1.90625 1.78125 5.375q0 0.21875 -0.015625 0.640625l-10.4375 0q0.140625 2.296875 1.3125 3.53125q1.171875 1.21875 2.921875 1.21875q1.3125 0 2.234375 -0.671875q0.921875 -0.6875 1.453125 -2.203125zm-7.78125 -3.828125l7.8125 0q-0.15625 -1.765625 -0.890625 -2.65625q-1.140625 -1.359375 -2.953125 -1.359375q-1.625 0 -2.75 1.09375q-1.109375 1.09375 -1.21875 2.921875zm13.028061 8.34375l0 -14.0l2.140625 0l0 1.984375q1.53125 -2.296875 4.453125 -2.296875q1.265625 0 2.328125 0.453125q1.0625 0.453125 1.578125 1.1875q0.53125 0.734375 0.75 1.75q0.125 0.671875 0.125 2.3125l0 8.609375l-2.375 0l0 -8.515625q0 -1.453125 -0.28125 -2.171875q-0.265625 -0.71875 -0.984375 -1.140625q-0.703125 -0.4375 -1.640625 -0.4375q-1.515625 0 -2.625 0.96875q-1.09375 0.953125 -1.09375 3.65625l0 7.640625l-2.375 0zm14.840561 -16.59375l0 -2.734375l2.375 0l0 2.734375l-2.375 0zm0 16.59375l0 -14.0l2.375 0l0 14.0l-2.375 0zm4.65654 0l0 -1.921875l8.90625 -10.234375q-1.515625 0.078125 -2.671875 0.078125l-5.703125 0l0 -1.921875l11.4375 0l0 1.5625l-7.578125 8.890625l-1.46875 1.625q1.59375 -0.125 3.0 -0.125l6.46875 0l0 2.046875l-12.390625 0zm24.15625 -4.515625l2.453125 0.3125q-0.578125 2.140625 -2.15625 3.328125q-1.5625 1.1875 -4.0 1.1875q-3.0625 0 -4.875 -1.890625q-1.796875 -1.890625 -1.796875 -5.296875q0 -3.546875 1.8125 -5.484375q1.828125 -1.953125 4.734375 -1.953125q2.8125 0 4.578125 1.90625q1.78125 1.90625 1.78125 5.375q0 0.21875 -0.015625 0.640625l-10.4375 0q0.140625 2.296875 1.3125 3.53125q1.171875 1.21875 2.921875 1.21875q1.3125 0 2.234375 -0.671875q0.921875 -0.6875 1.453125 -2.203125zm-7.78125 -3.828125l7.8125 0q-0.15625 -1.765625 -0.890625 -2.65625q-1.140625 -1.359375 -2.953125 -1.359375q-1.625 0 -2.75 1.09375q-1.109375 1.09375 -1.21875 2.921875zm12.996811 8.34375l0 -14.0l2.140625 0l0 2.125q0.8125 -1.5 1.5 -1.96875q0.703125 -0.46875 1.53125 -0.46875q1.203125 0 2.4375 0.765625l-0.8125 2.203125q-0.875 -0.515625 -1.75 -0.515625q-0.765625 0 -1.390625 0.46875q-0.625 0.46875 -0.890625 1.296875q-0.390625 1.265625 -0.390625 2.765625l0 7.328125l-2.375 0z" fill-rule="nonzero"></path><path fill="#000000" fill-opacity="0.0" d="m179.89633 118.314964l0 45.03936" fill-rule="nonzero"></path><path stroke="#595959" stroke-width="1.0" stroke-linejoin="round" stroke-linecap="butt" d="m179.89633 118.314964l0 39.03936" fill-rule="evenodd"></path><path fill="#595959" stroke="#595959" stroke-width="1.0" stroke-linecap="butt" d="m178.2446 157.35432l1.6517334 4.538101l1.6517334 -4.538101z" fill-rule="evenodd"></path><path fill="#000000" fill-opacity="0.0" d="m282.72702 192.62993l127.37009 0" fill-rule="nonzero"></path><path stroke="#595959" stroke-width="1.0" stroke-linejoin="round" stroke-linecap="butt" d="m282.72702 192.62993l121.37009 0" fill-rule="evenodd"></path><path fill="#595959" stroke="#595959" stroke-width="1.0" stroke-linecap="butt" d="m404.0971 194.28165l4.5381165 -1.6517181l-4.5381165 -1.6517334z" fill-rule="evenodd"></path><path stroke="#9e9e9e" stroke-width="1.0" stroke-linecap="butt" d="m96.42388 263.9672l0 56.86615" fill-rule="nonzero"></path><path stroke="#9e9e9e" stroke-width="1.0" stroke-linecap="butt" d="m279.36615 263.9672l0 56.86615" fill-rule="nonzero"></path><path stroke="#9e9e9e" stroke-width="1.0" stroke-linecap="butt" d="m95.92519 264.46588l183.93964 0" fill-rule="nonzero"></path><path stroke="#9e9e9e" stroke-width="1.0" stroke-linecap="butt" d="m95.92519 320.33466l183.93964 0" fill-rule="nonzero"></path><path fill="#000000" d="m125.42541 299.0659l0 -19.328125l2.546875 0l0 17.046875l9.515633 0l0 2.28125l-12.062508 0zm13.731194 -7.0q0 -3.890625 2.171875 -5.765625q1.796875 -1.546875 4.40625 -1.546875q2.875 0 4.703125 1.890625q1.84375 1.890625 1.84375 5.21875q0 2.703125 -0.8125 4.265625q-0.8125 1.546875 -2.359375 2.40625q-1.546875 0.84375 -3.375 0.84375q-2.953125 0 -4.765625 -1.875q-1.8125 -1.890625 -1.8125 -5.4375zm2.4375 0q0 2.6875 1.171875 4.03125q1.1875 1.328125 2.96875 1.328125q1.765625 0 2.9375 -1.34375q1.171875 -1.34375 1.171875 -4.09375q0 -2.59375 -1.1875 -3.9375q-1.171875 -1.34375 -2.921875 -1.34375q-1.78125 0 -2.96875 1.34375q-1.171875 1.328125 -1.171875 4.015625zm15.856186 7.0l-4.28125 -14.0l2.453125 0l2.234375 8.078125l0.828125 3.015625q0.046875 -0.234375 0.71875 -2.890625l2.234375 -8.203125l2.4375 0l2.09375 8.125l0.703125 2.671875l0.796875 -2.703125l2.40625 -8.09375l2.296875 0l-4.375 14.0l-2.453125 0l-2.234375 -8.390625l-0.546875 -2.375l-2.828125 10.765625l-2.484375 0zm26.25029 -4.515625l2.453125 0.3125q-0.578125 2.140625 -2.15625 3.328125q-1.5625 1.1875 -4.0 1.1875q-3.0625 0 -4.875 -1.890625q-1.796875 -1.890625 -1.796875 -5.296875q0 -3.546875 1.8125 -5.484375q1.828125 -1.953125 4.734375 -1.953125q2.8125 0 4.578125 1.90625q1.78125 1.90625 1.78125 5.375q0 0.21875 -0.015625 0.640625l-10.4375 0q0.140625 2.296875 1.3125 3.53125q1.171875 1.21875 2.921875 1.21875q1.3125 0 2.234375 -0.671875q0.921875 -0.6875 1.453125 -2.203125zm-7.78125 -3.828125l7.8125 0q-0.15625 -1.765625 -0.890625 -2.65625q-1.140625 -1.359375 -2.953125 -1.359375q-1.625 0 -2.75 1.09375q-1.109375 1.09375 -1.21875 2.921875zm12.996811 8.34375l0 -14.0l2.140625 0l0 2.125q0.8125 -1.5 1.5 -1.96875q0.703125 -0.46875 1.53125 -0.46875q1.203125 0 2.4375 0.765625l-0.8125 2.203125q-0.875 -0.515625 -1.75 -0.515625q-0.765625 0 -1.390625 0.46875q-0.625 0.46875 -0.890625 1.296875q-0.390625 1.265625 -0.390625 2.765625l0 7.328125l-2.375 0zm18.048615 -5.125l2.328125 0.296875q-0.375 2.421875 -1.953125 3.78125q-1.578125 1.359375 -3.875 1.359375q-2.875 0 -4.625 -1.875q-1.734375 -1.875 -1.734375 -5.390625q0 -2.265625 0.75 -3.953125q0.75 -1.703125 2.28125 -2.546875q1.53125 -0.859375 3.34375 -0.859375q2.28125 0 3.71875 1.15625q1.453125 1.140625 1.875 3.265625l-2.3125 0.359375q-0.328125 -1.40625 -1.171875 -2.109375q-0.828125 -0.71875 -2.015625 -0.71875q-1.796875 0 -2.921875 1.28125q-1.109375 1.28125 -1.109375 4.0625q0 2.828125 1.078125 4.109375q1.078125 1.265625 2.8125 1.265625q1.40625 0 2.34375 -0.84375q0.9375 -0.859375 1.1875 -2.640625zm13.328125 3.390625q-1.328125 1.125 -2.546875 1.59375q-1.21875 0.453125 -2.609375 0.453125q-2.3125 0 -3.5625 -1.125q-1.234375 -1.125 -1.234375 -2.875q0 -1.03125 0.46875 -1.875q0.46875 -0.859375 1.21875 -1.375q0.765625 -0.515625 1.71875 -0.78125q0.703125 -0.171875 2.109375 -0.34375q2.875 -0.34375 4.234375 -0.828125q0.015625 -0.484375 0.015625 -0.609375q0 -1.453125 -0.671875 -2.046875q-0.90625 -0.8125 -2.703125 -0.8125q-1.671875 0 -2.46875 0.59375q-0.796875 0.578125 -1.1875 2.078125l-2.3125 -0.3125q0.3125 -1.5 1.03125 -2.40625q0.734375 -0.921875 2.09375 -1.40625q1.375 -0.5 3.1875 -0.5q1.796875 0 2.90625 0.421875q1.125 0.421875 1.640625 1.0625q0.53125 0.640625 0.75 1.609375q0.125 0.609375 0.125 2.1875l0 3.171875q0 3.296875 0.140625 4.1875q0.15625 0.875 0.609375 1.671875l-2.484375 0q-0.375 -0.734375 -0.46875 -1.734375zm-0.203125 -5.296875q-1.296875 0.53125 -3.875 0.90625q-1.46875 0.203125 -2.078125 0.46875q-0.59375 0.265625 -0.9375 0.78125q-0.328125 0.5 -0.328125 1.125q0 0.9375 0.71875 1.578125q0.71875 0.625 2.109375 0.625q1.375 0 2.4375 -0.59375q1.0625 -0.609375 1.578125 -1.640625q0.375 -0.8125 0.375 -2.375l0 -0.875zm4.934311 2.859375l2.34375 -0.375q0.203125 1.40625 1.109375 2.15625q0.90625 0.75 2.515625 0.75q1.640625 0 2.421875 -0.65625q0.796875 -0.671875 0.796875 -1.5625q0 -0.8125 -0.6875 -1.265625q-0.5 -0.3125 -2.4375 -0.8125q-2.609375 -0.65625 -3.625 -1.125q-1.0 -0.484375 -1.53125 -1.328125q-0.515625 -0.859375 -0.515625 -1.890625q0 -0.9375 0.421875 -1.734375q0.4375 -0.796875 1.1875 -1.328125q0.546875 -0.40625 1.5 -0.6875q0.953125 -0.28125 2.046875 -0.28125q1.65625 0 2.890625 0.46875q1.25 0.46875 1.84375 1.28125q0.59375 0.8125 0.828125 2.171875l-2.328125 0.3125q-0.15625 -1.078125 -0.921875 -1.671875q-0.75 -0.609375 -2.140625 -0.609375q-1.625 0 -2.328125 0.546875q-0.703125 0.53125 -0.703125 1.25q0 0.46875 0.296875 0.828125q0.28125 0.390625 0.90625 0.640625q0.359375 0.125 2.09375 0.609375q2.515625 0.671875 3.515625 1.09375q1.0 0.421875 1.5625 1.25q0.5625 0.8125 0.5625 2.03125q0 1.1875 -0.6875 2.234375q-0.6875 1.046875 -2.0 1.625q-1.296875 0.5625 -2.953125 0.5625q-2.71875 0 -4.15625 -1.125q-1.4375 -1.140625 -1.828125 -3.359375zm23.859375 -0.34375l2.453125 0.3125q-0.578125 2.140625 -2.15625 3.328125q-1.5625 1.1875 -4.0 1.1875q-3.0625 0 -4.875 -1.890625q-1.796875 -1.890625 -1.796875 -5.296875q0 -3.546875 1.8125 -5.484375q1.828125 -1.953125 4.734375 -1.953125q2.8125 0 4.578125 1.90625q1.78125 1.90625 1.78125 5.375q0 0.21875 -0.015625 0.640625l-10.4375 0q0.140625 2.296875 1.3125 3.53125q1.171875 1.21875 2.921875 1.21875q1.3125 0 2.234375 -0.671875q0.921875 -0.6875 1.453125 -2.203125zm-7.78125 -3.828125l7.8125 0q-0.15625 -1.765625 -0.890625 -2.65625q-1.140625 -1.359375 -2.953125 -1.359375q-1.625 0 -2.75 1.09375q-1.109375 1.09375 -1.21875 2.921875z" fill-rule="nonzero"></path><path fill="#000000" fill-opacity="0.0" d="m181.7559 230.14436l0 32.62993" fill-rule="nonzero"></path><path stroke="#595959" stroke-width="1.0" stroke-linejoin="round" stroke-linecap="butt" d="m181.7559 230.14436l0 26.629929" fill-rule="evenodd"></path><path fill="#595959" stroke="#595959" stroke-width="1.0" stroke-linecap="butt" d="m180.10417 256.7743l1.6517334 4.538086l1.6517334 -4.538086z" fill-rule="evenodd"></path><path stroke="#9e9e9e" stroke-width="1.0" stroke-linecap="butt" d="m422.5971 263.9672l0 56.86615" fill-rule="nonzero"></path><path stroke="#9e9e9e" stroke-width="1.0" stroke-linecap="butt" d="m814.46063 263.9672l0 56.86615" fill-rule="nonzero"></path><path stroke="#9e9e9e" stroke-width="1.0" stroke-linecap="butt" d="m422.09842 264.46588l392.86087 0" fill-rule="nonzero"></path><path stroke="#9e9e9e" stroke-width="1.0" stroke-linecap="butt" d="m422.09842 320.33466l392.86087 0" fill-rule="nonzero"></path><path fill="#000000" d="m482.20468 282.98776l0 2.75l-2.546875 0l0 -2.171875q0 -1.765625 0.421875 -2.5625q0.546875 -1.046875 1.75 -1.59375l0.578125 0.921875q-0.71875 0.296875 -1.0625 0.90625q-0.34375 0.59375 -0.375 1.75l1.234375 0zm4.078125 0l0 2.75l-2.53125 0l0 -2.171875q0 -1.765625 0.421875 -2.5625q0.546875 -1.046875 1.75 -1.59375l0.578125 0.921875q-0.71875 0.296875 -1.0625 0.90625q-0.34375 0.59375 -0.390625 1.75l1.234375 0zm8.1267395 13.953125l0.328125 2.09375q-1.0 0.21875 -1.78125 0.21875q-1.296875 0 -2.015625 -0.40625q-0.703125 -0.421875 -1.0 -1.078125q-0.28125 -0.671875 -0.28125 -2.796875l0 -8.0625l-1.75 0l0 -1.84375l1.75 0l0 -3.46875l2.359375 -1.421875l0 4.890625l2.390625 0l0 1.84375l-2.390625 0l0 8.1875q0 1.015625 0.125 1.3125q0.125 0.28125 0.40625 0.453125q0.28125 0.171875 0.8125 0.171875q0.390625 0 1.046875 -0.09375zm11.39032 2.125l0 -2.0625q-1.625 2.375 -4.4375 2.375q-1.234375 0 -2.3125 -0.46875q-1.078125 -0.484375 -1.609375 -1.1875q-0.515625 -0.71875 -0.71875 -1.765625q-0.140625 -0.703125 -0.140625 -2.21875l0 -8.671875l2.359375 0l0 7.765625q0 1.859375 0.15625 2.5q0.21875 0.9375 0.9375 1.46875q0.734375 0.53125 1.796875 0.53125q1.078125 0 2.0 -0.546875q0.9375 -0.546875 1.328125 -1.484375q0.390625 -0.9375 0.390625 -2.734375l0 -7.5l2.375 0l0 14.0l-2.125 0zm5.621826 0l0 -14.0l2.140625 0l0 2.125q0.8125 -1.5 1.5 -1.96875q0.703125 -0.46875 1.53125 -0.46875q1.203125 0 2.4375 0.765625l-0.8125 2.203125q-0.875 -0.515625 -1.75 -0.515625q-0.765625 0 -1.390625 0.46875q-0.625 0.46875 -0.890625 1.296875q-0.390625 1.265625 -0.390625 2.765625l0 7.328125l-2.375 0zm14.095459 -2.125l0.328125 2.09375q-1.0 0.21875 -1.78125 0.21875q-1.296875 0 -2.015625 -0.40625q-0.703125 -0.421875 -1.0 -1.078125q-0.28125 -0.671875 -0.28125 -2.796875l0 -8.0625l-1.75 0l0 -1.84375l1.75 0l0 -3.46875l2.359375 -1.421875l0 4.890625l2.390625 0l0 1.84375l-2.390625 0l0 8.1875q0 1.015625 0.125 1.3125q0.125 0.28125 0.40625 0.453125q0.28125 0.171875 0.8125 0.171875q0.390625 0 1.046875 -0.09375zm2.1716309 2.125l0 -19.328125l2.359375 0l0 19.328125l-2.359375 0zm15.547119 -4.515625l2.453125 0.3125q-0.578125 2.140625 -2.15625 3.328125q-1.5625 1.1875 -4.0 1.1875q-3.0625 0 -4.875 -1.890625q-1.796875 -1.890625 -1.796875 -5.296875q0 -3.546875 1.8125 -5.484375q1.828125 -1.953125 4.734375 -1.953125q2.8125 0 4.578125 1.90625q1.78125 1.90625 1.78125 5.375q0 0.21875 -0.015625 0.640625l-10.4375 0q0.140625 2.296875 1.3125 3.53125q1.171875 1.21875 2.921875 1.21875q1.3125 0 2.234375 -0.671875q0.921875 -0.6875 1.453125 -2.203125zm-7.78125 -3.828125l7.8125 0q-0.15625 -1.765625 -0.890625 -2.65625q-1.140625 -1.359375 -2.953125 -1.359375q-1.625 0 -2.75 1.09375q-1.109375 1.09375 -1.21875 2.921875zm12.074951 4.171875l2.34375 -0.375q0.203125 1.40625 1.109375 2.15625q0.90625 0.75 2.515625 0.75q1.640625 0 2.421875 -0.65625q0.796875 -0.671875 0.796875 -1.5625q0 -0.8125 -0.6875 -1.265625q-0.5 -0.3125 -2.4375 -0.8125q-2.609375 -0.65625 -3.625 -1.125q-1.0 -0.484375 -1.53125 -1.328125q-0.515625 -0.859375 -0.515625 -1.890625q0 -0.9375 0.421875 -1.734375q0.4375 -0.796875 1.1875 -1.328125q0.546875 -0.40625 1.5 -0.6875q0.953125 -0.28125 2.046875 -0.28125q1.65625 0 2.890625 0.46875q1.25 0.46875 1.84375 1.28125q0.59375 0.8125 0.828125 2.171875l-2.328125 0.3125q-0.15625 -1.078125 -0.921875 -1.671875q-0.75 -0.609375 -2.140625 -0.609375q-1.625 0 -2.328125 0.546875q-0.703125 0.53125 -0.703125 1.25q0 0.46875 0.296875 0.828125q0.28125 0.390625 0.90625 0.640625q0.359375 0.125 2.09375 0.609375q2.515625 0.671875 3.515625 1.09375q1.0 0.421875 1.5625 1.25q0.5625 0.8125 0.5625 2.03125q0 1.1875 -0.6875 2.234375q-0.6875 1.046875 -2.0 1.625q-1.296875 0.5625 -2.953125 0.5625q-2.71875 0 -4.15625 -1.125q-1.4375 -1.140625 -1.828125 -3.359375zm13.640625 -12.59375l0 -2.765625l2.546875 0l0 2.1875q0 1.765625 -0.40625 2.53125q-0.5625 1.078125 -1.765625 1.609375l-0.578125 -0.9375q0.703125 -0.28125 1.046875 -0.90625q0.359375 -0.625 0.40625 -1.71875l-1.25 0zm4.09375 0l0 -2.765625l2.546875 0l0 2.1875q0 1.765625 -0.40625 2.53125q-0.578125 1.078125 -1.765625 1.609375l-0.59375 -0.9375q0.71875 -0.28125 1.0625 -0.90625q0.359375 -0.625 0.390625 -1.71875l-1.234375 0zm6.048645 16.765625l0 -2.703125l2.703125 0l0 2.703125q0 1.484375 -0.53125 2.40625q-0.53125 0.921875 -1.671875 1.421875l-0.671875 -1.015625q0.765625 -0.328125 1.109375 -0.96875q0.359375 -0.640625 0.40625 -1.84375l-1.34375 0zm16.046265 -16.078125l0 2.75l-2.546875 0l0 -2.171875q0 -1.765625 0.421875 -2.5625q0.546875 -1.046875 1.75 -1.59375l0.578125 0.921875q-0.71875 0.296875 -1.0625 0.90625q-0.34375 0.59375 -0.375 1.75l1.234375 0zm4.078125 0l0 2.75l-2.53125 0l0 -2.171875q0 -1.765625 0.421875 -2.5625q0.546875 -1.046875 1.75 -1.59375l0.578125 0.921875q-0.71875 0.296875 -1.0625 0.90625q-0.34375 0.59375 -0.390625 1.75l1.234375 0zm2.892395 16.078125l0 -19.328125l2.359375 0l0 19.328125l-2.359375 0zm5.078369 -7.0q0 -3.890625 2.171875 -5.765625q1.796875 -1.546875 4.40625 -1.546875q2.875 0 4.703125 1.890625q1.84375 1.890625 1.84375 5.21875q0 2.703125 -0.8125 4.265625q-0.8125 1.546875 -2.359375 2.40625q-1.546875 0.84375 -3.375 0.84375q-2.953125 0 -4.765625 -1.875q-1.8125 -1.890625 -1.8125 -5.4375zm2.4375 0q0 2.6875 1.171875 4.03125q1.1875 1.328125 2.96875 1.328125q1.765625 0 2.9375 -1.34375q1.171875 -1.34375 1.171875 -4.09375q0 -2.59375 -1.1875 -3.9375q-1.171875 -1.34375 -2.921875 -1.34375q-1.78125 0 -2.96875 1.34375q-1.171875 1.328125 -1.171875 4.015625zm17.168701 7.0l-5.328125 -14.0l2.5 0l3.015625 8.390625q0.484375 1.34375 0.890625 2.8125q0.3125 -1.109375 0.890625 -2.65625l3.109375 -8.546875l2.4375 0l-5.296875 14.0l-2.21875 0zm19.015625 -4.515625l2.453125 0.3125q-0.578125 2.140625 -2.15625 3.328125q-1.5625 1.1875 -4.0 1.1875q-3.0625 0 -4.875 -1.890625q-1.796875 -1.890625 -1.796875 -5.296875q0 -3.546875 1.8125 -5.484375q1.828125 -1.953125 4.734375 -1.953125q2.8125 0 4.578125 1.90625q1.78125 1.90625 1.78125 5.375q0 0.21875 -0.015625 0.640625l-10.4375 0q0.140625 2.296875 1.3125 3.53125q1.171875 1.21875 2.921875 1.21875q1.3125 0 2.234375 -0.671875q0.921875 -0.6875 1.453125 -2.203125zm-7.78125 -3.828125l7.8125 0q-0.15625 -1.765625 -0.890625 -2.65625q-1.140625 -1.359375 -2.953125 -1.359375q-1.625 0 -2.75 1.09375q-1.109375 1.09375 -1.21875 2.921875zm12.074951 4.171875l2.34375 -0.375q0.203125 1.40625 1.109375 2.15625q0.90625 0.75 2.515625 0.75q1.640625 0 2.421875 -0.65625q0.796875 -0.671875 0.796875 -1.5625q0 -0.8125 -0.6875 -1.265625q-0.5 -0.3125 -2.4375 -0.8125q-2.609375 -0.65625 -3.625 -1.125q-1.0 -0.484375 -1.53125 -1.328125q-0.515625 -0.859375 -0.515625 -1.890625q0 -0.9375 0.421875 -1.734375q0.4375 -0.796875 1.1875 -1.328125q0.546875 -0.40625 1.5 -0.6875q0.953125 -0.28125 2.046875 -0.28125q1.65625 0 2.890625 0.46875q1.25 0.46875 1.84375 1.28125q0.59375 0.8125 0.828125 2.171875l-2.328125 0.3125q-0.15625 -1.078125 -0.921875 -1.671875q-0.75 -0.609375 -2.140625 -0.609375q-1.625 0 -2.328125 0.546875q-0.703125 0.53125 -0.703125 1.25q0 0.46875 0.296875 0.828125q0.28125 0.390625 0.90625 0.640625q0.359375 0.125 2.09375 0.609375q2.515625 0.671875 3.515625 1.09375q1.0 0.421875 1.5625 1.25q0.5625 0.8125 0.5625 2.03125q0 1.1875 -0.6875 2.234375q-0.6875 1.046875 -2.0 1.625q-1.296875 0.5625 -2.953125 0.5625q-2.71875 0 -4.15625 -1.125q-1.4375 -1.140625 -1.828125 -3.359375zm13.640625 -12.59375l0 -2.765625l2.546875 0l0 2.1875q0 1.765625 -0.40625 2.53125q-0.5625 1.078125 -1.765625 1.609375l-0.578125 -0.9375q0.703125 -0.28125 1.046875 -0.90625q0.359375 -0.625 0.40625 -1.71875l-1.25 0zm4.09375 0l0 -2.765625l2.546875 0l0 2.1875q0 1.765625 -0.40625 2.53125q-0.578125 1.078125 -1.765625 1.609375l-0.59375 -0.9375q0.71875 -0.28125 1.0625 -0.90625q0.359375 -0.625 0.390625 -1.71875l-1.234375 0zm6.048584 16.765625l0 -2.703125l2.703125 0l0 2.703125q0 1.484375 -0.53125 2.40625q-0.53125 0.921875 -1.671875 1.421875l-0.671875 -1.015625q0.765625 -0.328125 1.109375 -0.96875q0.359375 -0.640625 0.40625 -1.84375l-1.34375 0zm16.046326 -16.078125l0 2.75l-2.546875 0l0 -2.171875q0 -1.765625 0.421875 -2.5625q0.546875 -1.046875 1.75 -1.59375l0.578125 0.921875q-0.71875 0.296875 -1.0625 0.90625q-0.34375 0.59375 -0.375 1.75l1.234375 0zm4.078125 0l0 2.75l-2.53125 0l0 -2.171875q0 -1.765625 0.421875 -2.5625q0.546875 -1.046875 1.75 -1.59375l0.578125 0.921875q-0.71875 0.296875 -1.0625 0.90625q-0.34375 0.59375 -0.390625 1.75l1.234375 0zm2.939209 21.4375l0 -19.359375l2.15625 0l0 1.8125q0.765625 -1.0625 1.71875 -1.59375q0.96875 -0.53125 2.34375 -0.53125q1.796875 0 3.15625 0.921875q1.375 0.921875 2.078125 2.609375q0.703125 1.671875 0.703125 3.671875q0 2.15625 -0.78125 3.875q-0.765625 1.71875 -2.234375 2.640625q-1.46875 0.90625 -3.09375 0.90625q-1.1875 0 -2.125 -0.5q-0.9375 -0.5 -1.546875 -1.265625l0 6.8125l-2.375 0zm2.140625 -12.28125q0 2.703125 1.09375 4.0q1.109375 1.28125 2.65625 1.28125q1.578125 0 2.703125 -1.328125q1.140625 -1.34375 1.140625 -4.15625q0 -2.671875 -1.109375 -4.0q-1.09375 -1.328125 -2.625 -1.328125q-1.515625 0 -2.6875 1.421875q-1.171875 1.40625 -1.171875 4.109375zm12.699951 -9.671875l0 -2.734375l2.375 0l0 2.734375l-2.375 0zm0 16.59375l0 -14.0l2.375 0l0 14.0l-2.375 0zm4.656555 0l0 -1.921875l8.90625 -10.234375q-1.515625 0.078125 -2.671875 0.078125l-5.703125 0l0 -1.921875l11.4375 0l0 1.5625l-7.578125 8.890625l-1.46875 1.625q1.59375 -0.125 3.0 -0.125l6.46875 0l0 2.046875l-12.390625 0zm13.328125 0l0 -1.921875l8.90625 -10.234375q-1.515625 0.078125 -2.671875 0.078125l-5.703125 0l0 -1.921875l11.4375 0l0 1.5625l-7.578125 8.890625l-1.46875 1.625q1.59375 -0.125 3.0 -0.125l6.46875 0l0 2.046875l-12.390625 0zm23.71875 -1.734375q-1.328125 1.125 -2.546875 1.59375q-1.21875 0.453125 -2.609375 0.453125q-2.3125 0 -3.5625 -1.125q-1.234375 -1.125 -1.234375 -2.875q0 -1.03125 0.46875 -1.875q0.46875 -0.859375 1.21875 -1.375q0.765625 -0.515625 1.71875 -0.78125q0.703125 -0.171875 2.109375 -0.34375q2.875 -0.34375 4.234375 -0.828125q0.015625 -0.484375 0.015625 -0.609375q0 -1.453125 -0.671875 -2.046875q-0.90625 -0.8125 -2.703125 -0.8125q-1.671875 0 -2.46875 0.59375q-0.796875 0.578125 -1.1875 2.078125l-2.3125 -0.3125q0.3125 -1.5 1.03125 -2.40625q0.734375 -0.921875 2.09375 -1.40625q1.375 -0.5 3.1875 -0.5q1.796875 0 2.90625 0.421875q1.125 0.421875 1.640625 1.0625q0.53125 0.640625 0.75 1.609375q0.125 0.609375 0.125 2.1875l0 3.171875q0 3.296875 0.140625 4.1875q0.15625 0.875 0.609375 1.671875l-2.484375 0q-0.375 -0.734375 -0.46875 -1.734375zm-0.203125 -5.296875q-1.296875 0.53125 -3.875 0.90625q-1.46875 0.203125 -2.078125 0.46875q-0.59375 0.265625 -0.9375 0.78125q-0.328125 0.5 -0.328125 1.125q0 0.9375 0.71875 1.578125q0.71875 0.625 2.109375 0.625q1.375 0 2.4375 -0.59375q1.0625 -0.609375 1.578125 -1.640625q0.375 -0.8125 0.375 -2.375l0 -0.875zm5.246765 -9.734375l0 -2.765625l2.546875 0l0 2.1875q0 1.765625 -0.40625 2.53125q-0.5625 1.078125 -1.765625 1.609375l-0.578125 -0.9375q0.703125 -0.28125 1.046875 -0.90625q0.359375 -0.625 0.40625 -1.71875l-1.25 0zm4.09375 0l0 -2.765625l2.546875 0l0 2.1875q0 1.765625 -0.40625 2.53125q-0.578125 1.078125 -1.765625 1.609375l-0.59375 -0.9375q0.71875 -0.28125 1.0625 -0.90625q0.359375 -0.625 0.390625 -1.71875l-1.234375 0z" fill-rule="nonzero"></path><path fill="#000000" fill-opacity="0.0" d="m290.72702 288.6299l127.37009 0" fill-rule="nonzero"></path><path stroke="#595959" stroke-width="1.0" stroke-linejoin="round" stroke-linecap="butt" d="m290.72702 288.6299l121.37009 0" fill-rule="evenodd"></path><path fill="#595959" stroke="#595959" stroke-width="1.0" stroke-linecap="butt" d="m412.0971 290.28165l4.5381165 -1.6517334l-4.5381165 -1.6517334z" fill-rule="evenodd"></path><path stroke="#9e9e9e" stroke-width="1.0" stroke-linecap="butt" d="m92.42388 363.9672l0 56.86615" fill-rule="nonzero"></path><path stroke="#9e9e9e" stroke-width="1.0" stroke-linecap="butt" d="m275.36615 363.9672l0 56.86615" fill-rule="nonzero"></path><path stroke="#9e9e9e" stroke-width="1.0" stroke-linecap="butt" d="m91.92519 364.46588l183.93964 0" fill-rule="nonzero"></path><path stroke="#9e9e9e" stroke-width="1.0" stroke-linecap="butt" d="m91.92519 420.33466l183.93964 0" fill-rule="nonzero"></path><path fill="#000000" d="m125.117676 392.86276l2.40625 -0.21875q0.171875 1.453125 0.796875 2.390625q0.625 0.921875 1.9375 1.5q1.328125 0.5625 2.96875 0.5625q1.46875 0 2.578125 -0.421875q1.125 -0.4375 1.671875 -1.1875q0.5625 -0.765625 0.5625 -1.671875q0 -0.90625 -0.53125 -1.578125q-0.53125 -0.6875 -1.75 -1.140625q-0.765625 -0.3125 -3.4375 -0.953125q-2.65625 -0.640625 -3.734375 -1.203125q-1.375 -0.71875 -2.0625 -1.796875q-0.671875 -1.078125 -0.671875 -2.40625q0 -1.46875 0.828125 -2.734375q0.828125 -1.28125 2.421875 -1.9375q1.59375 -0.65625 3.546875 -0.65625q2.15625 0 3.796875 0.703125q1.640625 0.6875 2.515625 2.03125q0.890625 1.34375 0.953125 3.046875l-2.453125 0.171875q-0.1875 -1.828125 -1.328125 -2.765625q-1.140625 -0.9375 -3.375 -0.9375q-2.3125 0 -3.375 0.859375q-1.0625 0.84375 -1.0625 2.046875q0 1.046875 0.75 1.71875q0.734375 0.671875 3.84375 1.375q3.125 0.703125 4.28125 1.234375q1.6875 0.765625 2.484375 1.96875q0.8125 1.1875 0.8125 2.75q0 1.53125 -0.890625 2.90625q-0.875 1.359375 -2.53125 2.125q-1.65625 0.75 -3.71875 0.75q-2.625 0 -4.40625 -0.765625q-1.765625 -0.765625 -2.78125 -2.296875q-1.0 -1.53125 -1.046875 -3.46875zm23.52951 4.078125l0.328125 2.09375q-1.0 0.21875 -1.78125 0.21875q-1.296875 0 -2.015625 -0.40625q-0.703125 -0.421875 -1.0 -1.078125q-0.28125 -0.671875 -0.28125 -2.796875l0 -8.0625l-1.75 0l0 -1.84375l1.75 0l0 -3.46875l2.359375 -1.421875l0 4.890625l2.390625 0l0 1.84375l-2.390625 0l0 8.1875q0 1.015625 0.125 1.3125q0.125 0.28125 0.40625 0.453125q0.28125 0.171875 0.8125 0.171875q0.390625 0 1.046875 -0.09375zm11.796585 -2.390625l2.453125 0.3125q-0.578125 2.140625 -2.15625 3.328125q-1.5625 1.1875 -4.0 1.1875q-3.0625 0 -4.875 -1.890625q-1.796875 -1.890625 -1.796875 -5.296875q0 -3.546875 1.8125 -5.484375q1.828125 -1.953125 4.734375 -1.953125q2.8125 0 4.578125 1.90625q1.78125 1.90625 1.78125 5.375q0 0.21875 -0.015625 0.640625l-10.4375 0q0.140625 2.296875 1.3125 3.53125q1.171875 1.21875 2.921875 1.21875q1.3125 0 2.234375 -0.671875q0.921875 -0.6875 1.453125 -2.203125zm-7.78125 -3.828125l7.8125 0q-0.15625 -1.765625 -0.890625 -2.65625q-1.140625 -1.359375 -2.953125 -1.359375q-1.625 0 -2.75 1.09375q-1.109375 1.09375 -1.21875 2.921875zm13.028061 8.34375l0 -14.0l2.125 0l0 1.96875q0.65625 -1.03125 1.75 -1.65625q1.09375 -0.625 2.484375 -0.625q1.5625 0 2.546875 0.640625q1.0 0.640625 1.421875 1.8125q1.65625 -2.453125 4.3125 -2.453125q2.09375 0 3.203125 1.15625q1.125 1.140625 1.125 3.546875l0 9.609375l-2.359375 0l0 -8.8125q0 -1.4375 -0.234375 -2.0625q-0.21875 -0.625 -0.828125 -1.0q-0.609375 -0.390625 -1.421875 -0.390625q-1.484375 0 -2.46875 0.984375q-0.96875 0.984375 -0.96875 3.140625l0 8.140625l-2.375 0l0 -9.09375q0 -1.578125 -0.578125 -2.375q-0.578125 -0.796875 -1.890625 -0.796875q-1.0 0 -1.859375 0.53125q-0.84375 0.53125 -1.234375 1.546875q-0.375 1.015625 -0.375 2.921875l0 7.265625l-2.375 0zm22.204865 0l0 -14.0l2.125 0l0 1.96875q0.65625 -1.03125 1.75 -1.65625q1.09375 -0.625 2.484375 -0.625q1.5625 0 2.546875 0.640625q1.0 0.640625 1.421875 1.8125q1.65625 -2.453125 4.3125 -2.453125q2.09375 0 3.203125 1.15625q1.125 1.140625 1.125 3.546875l0 9.609375l-2.359375 0l0 -8.8125q0 -1.4375 -0.234375 -2.0625q-0.21875 -0.625 -0.828125 -1.0q-0.609375 -0.390625 -1.421875 -0.390625q-1.484375 0 -2.46875 0.984375q-0.96875 0.984375 -0.96875 3.140625l0 8.140625l-2.375 0l0 -9.09375q0 -1.578125 -0.578125 -2.375q-0.578125 -0.796875 -1.890625 -0.796875q-1.0 0 -1.859375 0.53125q-0.84375 0.53125 -1.234375 1.546875q-0.375 1.015625 -0.375 2.921875l0 7.265625l-2.375 0zm22.22049 -16.59375l0 -2.734375l2.375 0l0 2.734375l-2.375 0zm0 16.59375l0 -14.0l2.375 0l0 14.0l-2.375 0zm5.90654 0l0 -14.0l2.140625 0l0 1.984375q1.53125 -2.296875 4.4531403 -2.296875q1.265625 0 2.328125 0.453125q1.0625 0.453125 1.578125 1.1875q0.53125 0.734375 0.75 1.75q0.125 0.671875 0.125 2.3125l0 8.609375l-2.375 0l0 -8.515625q0 -1.453125 -0.28125 -2.171875q-0.265625 -0.71875 -0.984375 -1.140625q-0.703125 -0.4375 -1.640625 -0.4375q-1.515625 0 -2.6250153 0.96875q-1.09375 0.953125 -1.09375 3.65625l0 7.640625l-2.375 0zm14.387436 1.15625l2.3125 0.34375q0.140625 1.078125 0.796875 1.5625q0.890625 0.65625 2.421875 0.65625q1.640625 0 2.53125 -0.65625q0.90625 -0.65625 1.21875 -1.84375q0.1875 -0.734375 0.171875 -3.046875q-1.5625 1.828125 -3.875 1.828125q-2.890625 0 -4.46875 -2.078125q-1.578125 -2.09375 -1.578125 -5.0q0 -2.0 0.71875 -3.6875q0.734375 -1.703125 2.109375 -2.625q1.375 -0.921875 3.234375 -0.921875q2.46875 0 4.078125 2.0l0 -1.6875l2.1875 0l0 12.09375q0 3.28125 -0.671875 4.640625q-0.65625 1.359375 -2.109375 2.15625q-1.4375 0.796875 -3.546875 0.796875q-2.5 0 -4.046875 -1.140625q-1.53125 -1.125 -1.484375 -3.390625zm1.96875 -8.40625q0 2.75 1.09375 4.015625q1.09375 1.265625 2.734375 1.265625q1.640625 0 2.75 -1.25q1.109375 -1.265625 1.109375 -3.953125q0 -2.578125 -1.140625 -3.875q-1.140625 -1.3125 -2.75 -1.3125q-1.578125 0 -2.6875 1.296875q-1.109375 1.28125 -1.109375 3.8125z" fill-rule="nonzero"></path><path fill="#000000" fill-opacity="0.0" d="m181.7559 326.14435l0 32.629944" fill-rule="nonzero"></path><path stroke="#595959" stroke-width="1.0" stroke-linejoin="round" stroke-linecap="butt" d="m181.7559 326.14435l0 26.629944" fill-rule="evenodd"></path><path fill="#595959" stroke="#595959" stroke-width="1.0" stroke-linecap="butt" d="m180.10417 352.7743l1.6517334 4.538086l1.6517334 -4.538086z" fill-rule="evenodd"></path><path stroke="#9e9e9e" stroke-width="1.0" stroke-linecap="butt" d="m426.5971 363.9672l0 56.86615" fill-rule="nonzero"></path><path stroke="#9e9e9e" stroke-width="1.0" stroke-linecap="butt" d="m818.46063 363.9672l0 56.86615" fill-rule="nonzero"></path><path stroke="#9e9e9e" stroke-width="1.0" stroke-linecap="butt" d="m426.09842 364.46588l392.86087 0" fill-rule="nonzero"></path><path stroke="#9e9e9e" stroke-width="1.0" stroke-linecap="butt" d="m426.09842 420.33466l392.86087 0" fill-rule="nonzero"></path><path fill="#000000" d="m499.53278 382.98776l0 2.75l-2.546875 0l0 -2.171875q0 -1.765625 0.421875 -2.5625q0.546875 -1.046875 1.75 -1.59375l0.578125 0.921875q-0.71875 0.296875 -1.0625 0.90625q-0.34375 0.59375 -0.375 1.75l1.234375 0zm4.078125 0l0 2.75l-2.53125 0l0 -2.171875q0 -1.765625 0.421875 -2.5625q0.546875 -1.046875 1.75 -1.59375l0.578125 0.921875q-0.71875 0.296875 -1.0625 0.90625q-0.34375 0.59375 -0.390625 1.75l1.234375 0zm8.1267395 13.953125l0.32815552 2.09375q-1.0000305 0.21875 -1.7812805 0.21875q-1.296875 0 -2.015625 -0.40625q-0.703125 -0.421875 -1.0 -1.078125q-0.28125 -0.671875 -0.28125 -2.796875l0 -8.0625l-1.75 0l0 -1.84375l1.75 0l0 -3.46875l2.359375 -1.421875l0 4.890625l2.390625 0l0 1.84375l-2.390625 0l0 8.1875q0 1.015625 0.125 1.3125q0.125 0.28125 0.40625 0.453125q0.28125 0.171875 0.8125 0.171875q0.390625 0 1.046875 -0.09375zm11.39035 2.125l0 -2.0625q-1.625 2.375 -4.4375 2.375q-1.234375 0 -2.3125 -0.46875q-1.078125 -0.484375 -1.609375 -1.1875q-0.515625 -0.71875 -0.71875 -1.765625q-0.140625 -0.703125 -0.140625 -2.21875l0 -8.671875l2.359375 0l0 7.765625q0 1.859375 0.15625 2.5q0.21875 0.9375 0.9375 1.46875q0.734375 0.53125 1.796875 0.53125q1.078125 0 2.0 -0.546875q0.9375 -0.546875 1.328125 -1.484375q0.390625 -0.9375 0.390625 -2.734375l0 -7.5l2.375 0l0 14.0l-2.125 0zm5.621826 0l0 -14.0l2.140625 0l0 2.125q0.8125 -1.5 1.5 -1.96875q0.703125 -0.46875 1.53125 -0.46875q1.203125 0 2.4375 0.765625l-0.8125 2.203125q-0.875 -0.515625 -1.75 -0.515625q-0.765625 0 -1.390625 0.46875q-0.625 0.46875 -0.890625 1.296875q-0.390625 1.265625 -0.390625 2.765625l0 7.328125l-2.375 0zm14.095459 -2.125l0.328125 2.09375q-1.0 0.21875 -1.78125 0.21875q-1.296875 0 -2.015625 -0.40625q-0.703125 -0.421875 -1.0 -1.078125q-0.28125 -0.671875 -0.28125 -2.796875l0 -8.0625l-1.75 0l0 -1.84375l1.75 0l0 -3.46875l2.359375 -1.421875l0 4.890625l2.390625 0l0 1.84375l-2.390625 0l0 8.1875q0 1.015625 0.125 1.3125q0.125 0.28125 0.40625 0.453125q0.28125 0.171875 0.8125 0.171875q0.390625 0 1.046875 -0.09375zm2.1715698 2.125l0 -19.328125l2.359375 0l0 19.328125l-2.359375 0zm15.54718 -4.515625l2.453125 0.3125q-0.578125 2.140625 -2.15625 3.328125q-1.5625 1.1875 -4.0 1.1875q-3.0625 0 -4.875 -1.890625q-1.796875 -1.890625 -1.796875 -5.296875q0 -3.546875 1.8125 -5.484375q1.828125 -1.953125 4.734375 -1.953125q2.8125 0 4.578125 1.90625q1.78125 1.90625 1.78125 5.375q0 0.21875 -0.015625 0.640625l-10.4375 0q0.140625 2.296875 1.3125 3.53125q1.171875 1.21875 2.921875 1.21875q1.3125 0 2.234375 -0.671875q0.921875 -0.6875 1.453125 -2.203125zm-7.78125 -3.828125l7.8125 0q-0.15625 -1.765625 -0.890625 -2.65625q-1.140625 -1.359375 -2.953125 -1.359375q-1.625 0 -2.75 1.09375q-1.109375 1.09375 -1.21875 2.921875zm12.387451 -8.421875l0 -2.765625l2.546875 0l0 2.1875q0 1.765625 -0.40625 2.53125q-0.5625 1.078125 -1.765625 1.609375l-0.578125 -0.9375q0.703125 -0.28125 1.046875 -0.90625q0.359375 -0.625 0.40625 -1.71875l-1.25 0zm4.09375 0l0 -2.765625l2.546875 0l0 2.1875q0 1.765625 -0.40625 2.53125q-0.578125 1.078125 -1.765625 1.609375l-0.59375 -0.9375q0.71875 -0.28125 1.0625 -0.90625q0.359375 -0.625 0.390625 -1.71875l-1.234375 0zm6.048645 16.765625l0 -2.703125l2.703125 0l0 2.703125q0 1.484375 -0.53125 2.40625q-0.53125 0.921875 -1.671875 1.421875l-0.671875 -1.015625q0.765625 -0.328125 1.109375 -0.96875q0.359375 -0.640625 0.40625 -1.84375l-1.34375 0zm16.046265 -16.078125l0 2.75l-2.546875 0l0 -2.171875q0 -1.765625 0.421875 -2.5625q0.546875 -1.046875 1.75 -1.59375l0.578125 0.921875q-0.71875 0.296875 -1.0625 0.90625q-0.34375 0.59375 -0.375 1.75l1.234375 0zm4.078125 0l0 2.75l-2.53125 0l0 -2.171875q0 -1.765625 0.421875 -2.5625q0.546875 -1.046875 1.75 -1.59375l0.578125 0.921875q-0.71875 0.296875 -1.0625 0.90625q-0.34375 0.59375 -0.390625 1.75l1.234375 0zm2.892395 16.078125l0 -19.328125l2.359375 0l0 19.328125l-2.359375 0zm5.078369 -7.0q0 -3.890625 2.171875 -5.765625q1.796875 -1.546875 4.40625 -1.546875q2.875 0 4.703125 1.890625q1.84375 1.890625 1.84375 5.21875q0 2.703125 -0.8125 4.265625q-0.8125 1.546875 -2.359375 2.40625q-1.546875 0.84375 -3.375 0.84375q-2.953125 0 -4.765625 -1.875q-1.8125 -1.890625 -1.8125 -5.4375zm2.4375 0q0 2.6875 1.171875 4.03125q1.1875 1.328125 2.96875 1.328125q1.765625 0 2.9375 -1.34375q1.171875 -1.34375 1.171875 -4.09375q0 -2.59375 -1.1875 -3.9375q-1.171875 -1.34375 -2.921875 -1.34375q-1.78125 0 -2.96875 1.34375q-1.171875 1.328125 -1.171875 4.015625zm17.168701 7.0l-5.328125 -14.0l2.5 0l3.015625 8.390625q0.484375 1.34375 0.890625 2.8125q0.3125 -1.109375 0.890625 -2.65625l3.109375 -8.546875l2.4375 0l-5.296875 14.0l-2.21875 0zm19.015625 -4.515625l2.453125 0.3125q-0.578125 2.140625 -2.15625 3.328125q-1.5625 1.1875 -4.0 1.1875q-3.0625 0 -4.875 -1.890625q-1.796875 -1.890625 -1.796875 -5.296875q0 -3.546875 1.8125 -5.484375q1.828125 -1.953125 4.734375 -1.953125q2.8125 0 4.578125 1.90625q1.78125 1.90625 1.78125 5.375q0 0.21875 -0.015625 0.640625l-10.4375 0q0.140625 2.296875 1.3125 3.53125q1.171875 1.21875 2.921875 1.21875q1.3125 0 2.234375 -0.671875q0.921875 -0.6875 1.453125 -2.203125zm-7.78125 -3.828125l7.8125 0q-0.15625 -1.765625 -0.890625 -2.65625q-1.140625 -1.359375 -2.953125 -1.359375q-1.625 0 -2.75 1.09375q-1.109375 1.09375 -1.21875 2.921875zm12.387451 -8.421875l0 -2.765625l2.546875 0l0 2.1875q0 1.765625 -0.40625 2.53125q-0.5625 1.078125 -1.765625 1.609375l-0.578125 -0.9375q0.703125 -0.28125 1.046875 -0.90625q0.359375 -0.625 0.40625 -1.71875l-1.25 0zm4.09375 0l0 -2.765625l2.546875 0l0 2.1875q0 1.765625 -0.40625 2.53125q-0.578125 1.078125 -1.765625 1.609375l-0.59375 -0.9375q0.71875 -0.28125 1.0625 -0.90625q0.359375 -0.625 0.390625 -1.71875l-1.234375 0zm6.048584 16.765625l0 -2.703125l2.703125 0l0 2.703125q0 1.484375 -0.53125 2.40625q-0.53125 0.921875 -1.671875 1.421875l-0.671875 -1.015625q0.765625 -0.328125 1.109375 -0.96875q0.359375 -0.640625 0.40625 -1.84375l-1.34375 0zm16.046326 -16.078125l0 2.75l-2.546875 0l0 -2.171875q0 -1.765625 0.421875 -2.5625q0.546875 -1.046875 1.75 -1.59375l0.578125 0.921875q-0.71875 0.296875 -1.0625 0.90625q-0.34375 0.59375 -0.375 1.75l1.234375 0zm4.078125 0l0 2.75l-2.53125 0l0 -2.171875q0 -1.765625 0.421875 -2.5625q0.546875 -1.046875 1.75 -1.59375l0.578125 0.921875q-0.71875 0.296875 -1.0625 0.90625q-0.34375 0.59375 -0.390625 1.75l1.234375 0zm2.939209 21.4375l0 -19.359375l2.15625 0l0 1.8125q0.765625 -1.0625 1.71875 -1.59375q0.96875 -0.53125 2.34375 -0.53125q1.796875 0 3.15625 0.921875q1.375 0.921875 2.078125 2.609375q0.703125 1.671875 0.703125 3.671875q0 2.15625 -0.78125 3.875q-0.765625 1.71875 -2.234375 2.640625q-1.46875 0.90625 -3.09375 0.90625q-1.1875 0 -2.125 -0.5q-0.9375 -0.5 -1.546875 -1.265625l0 6.8125l-2.375 0zm2.140625 -12.28125q0 2.703125 1.09375 4.0q1.109375 1.28125 2.65625 1.28125q1.578125 0 2.703125 -1.328125q1.140625 -1.34375 1.140625 -4.15625q0 -2.671875 -1.109375 -4.0q-1.09375 -1.328125 -2.625 -1.328125q-1.515625 0 -2.6875 1.421875q-1.171875 1.40625 -1.171875 4.109375zm12.699951 -9.671875l0 -2.734375l2.375 0l0 2.734375l-2.375 0zm0 16.59375l0 -14.0l2.375 0l0 14.0l-2.375 0zm4.656555 0l0 -1.921875l8.90625 -10.234375q-1.515625 0.078125 -2.671875 0.078125l-5.703125 0l0 -1.921875l11.4375 0l0 1.5625l-7.578125 8.890625l-1.46875 1.625q1.59375 -0.125 3.0 -0.125l6.46875 0l0 2.046875l-12.390625 0zm13.328125 0l0 -1.921875l8.90625 -10.234375q-1.515625 0.078125 -2.671875 0.078125l-5.703125 0l0 -1.921875l11.4375 0l0 1.5625l-7.578125 8.890625l-1.46875 1.625q1.59375 -0.125 3.0 -0.125l6.46875 0l0 2.046875l-12.390625 0zm23.71875 -1.734375q-1.328125 1.125 -2.546875 1.59375q-1.21875 0.453125 -2.609375 0.453125q-2.3125 0 -3.5625 -1.125q-1.234375 -1.125 -1.234375 -2.875q0 -1.03125 0.46875 -1.875q0.46875 -0.859375 1.21875 -1.375q0.765625 -0.515625 1.71875 -0.78125q0.703125 -0.171875 2.109375 -0.34375q2.875 -0.34375 4.234375 -0.828125q0.015625 -0.484375 0.015625 -0.609375q0 -1.453125 -0.671875 -2.046875q-0.90625 -0.8125 -2.703125 -0.8125q-1.671875 0 -2.46875 0.59375q-0.796875 0.578125 -1.1875 2.078125l-2.3125 -0.3125q0.3125 -1.5 1.03125 -2.40625q0.734375 -0.921875 2.09375 -1.40625q1.375 -0.5 3.1875 -0.5q1.796875 0 2.90625 0.421875q1.125 0.421875 1.640625 1.0625q0.53125 0.640625 0.75 1.609375q0.125 0.609375 0.125 2.1875l0 3.171875q0 3.296875 0.140625 4.1875q0.15625 0.875 0.609375 1.671875l-2.484375 0q-0.375 -0.734375 -0.46875 -1.734375zm-0.203125 -5.296875q-1.296875 0.53125 -3.875 0.90625q-1.46875 0.203125 -2.078125 0.46875q-0.59375 0.265625 -0.9375 0.78125q-0.328125 0.5 -0.328125 1.125q0 0.9375 0.71875 1.578125q0.71875 0.625 2.109375 0.625q1.375 0 2.4375 -0.59375q1.0625 -0.609375 1.578125 -1.640625q0.375 -0.8125 0.375 -2.375l0 -0.875zm5.246826 -9.734375l0 -2.765625l2.546875 0l0 2.1875q0 1.765625 -0.40625 2.53125q-0.5625 1.078125 -1.765625 1.609375l-0.578125 -0.9375q0.703125 -0.28125 1.046875 -0.90625q0.359375 -0.625 0.40625 -1.71875l-1.25 0zm4.09375 0l0 -2.765625l2.546875 0l0 2.1875q0 1.765625 -0.40625 2.53125q-0.578125 1.078125 -1.765625 1.609375l-0.59375 -0.9375q0.71875 -0.28125 1.0625 -0.90625q0.359375 -0.625 0.390625 -1.71875l-1.234375 0z" fill-rule="nonzero"></path><path fill="#000000" fill-opacity="0.0" d="m290.72702 392.6299l127.37009 0" fill-rule="nonzero"></path><path stroke="#595959" stroke-width="1.0" stroke-linejoin="round" stroke-linecap="butt" d="m290.72702 392.6299l121.37009 0" fill-rule="evenodd"></path><path fill="#595959" stroke="#595959" stroke-width="1.0" stroke-linecap="butt" d="m412.0971 394.28165l4.5381165 -1.6517334l-4.5381165 -1.6517334z" fill-rule="evenodd"></path><path fill="#000000" fill-opacity="0.0" d="m179.89633 428.2152l0 45.0394" fill-rule="nonzero"></path><path stroke="#595959" stroke-width="1.0" stroke-linejoin="round" stroke-linecap="butt" d="m179.89633 428.2152l0 39.0394" fill-rule="evenodd"></path><path fill="#595959" stroke="#595959" stroke-width="1.0" stroke-linecap="butt" d="m178.2446 467.2546l1.6517334 4.538086l1.6517334 -4.538086z" fill-rule="evenodd"></path><path fill="#000000" fill-opacity="0.0" d="m82.1706 473.2546l200.56693 0l0 32.629913l-200.56693 0z" fill-rule="nonzero"></path><path fill="#000000" d="m93.686226 507.85458l0 -19.328125l2.5625 0l0 19.328125l-2.5625 0zm6.671585 0l0 -14.0l2.140625 0l0 1.984375q1.53125 -2.296875 4.453125 -2.296875q1.265625 0 2.328125 0.453125q1.0625 0.453125 1.578125 1.1875q0.53125 0.734375 0.75 1.75q0.125 0.671875 0.125 2.3125l0 8.609375l-2.375 0l0 -8.515625q0 -1.453125 -0.28125 -2.171875q-0.265625 -0.71875 -0.984375 -1.140625q-0.703125 -0.4375 -1.640625 -0.4375q-1.515625 0 -2.625 0.96875q-1.09375 0.953125 -1.09375 3.65625l0 7.640625l-2.375 0zm18.71556 0l-5.328125 -14.0l2.5 0l3.015625 8.390625q0.484375 1.34375 0.890625 2.8125q0.3125 -1.109375 0.890625 -2.65625l3.109375 -8.546875l2.4375 0l-5.296875 14.0l-2.21875 0zm19.015633 -4.515625l2.453125 0.3125q-0.578125 2.140625 -2.15625 3.328125q-1.5625 1.1875 -4.0 1.1875q-3.0625 0 -4.875 -1.890625q-1.7968826 -1.890625 -1.7968826 -5.296875q0 -3.546875 1.8125076 -5.484375q1.828125 -1.953125 4.734375 -1.953125q2.8125 0 4.578125 1.90625q1.78125 1.90625 1.78125 5.375q0 0.21875 -0.015625 0.640625l-10.4375 0q0.140625 2.296875 1.3125 3.53125q1.171875 1.21875 2.921875 1.21875q1.3125 0 2.234375 -0.671875q0.921875 -0.6875 1.453125 -2.203125zm-7.78125 -3.828125l7.8125 0q-0.15625 -1.765625 -0.890625 -2.65625q-1.140625 -1.359375 -2.953125 -1.359375q-1.625 0 -2.75 1.09375q-1.109375 1.09375 -1.21875 2.921875zm12.996811 8.34375l0 -14.0l2.140625 0l0 2.125q0.8125 -1.5 1.5 -1.96875q0.703125 -0.46875 1.53125 -0.46875q1.203125 0 2.4375 0.765625l-0.8125 2.203125q-0.875 -0.515625 -1.75 -0.515625q-0.765625 0 -1.390625 0.46875q-0.625 0.46875 -0.890625 1.296875q-0.390625 1.265625 -0.390625 2.765625l0 7.328125l-2.375 0zm14.0954895 -2.125l0.328125 2.09375q-1.0 0.21875 -1.78125 0.21875q-1.296875 0 -2.015625 -0.40625q-0.703125 -0.421875 -1.0 -1.078125q-0.28125 -0.671875 -0.28125 -2.796875l0 -8.0625l-1.75 0l0 -1.84375l1.75 0l0 -3.46875l2.359375 -1.421875l0 4.890625l2.390625 0l0 1.84375l-2.390625 0l0 8.1875q0 1.015625 0.125 1.3125q0.125 0.28125 0.40625 0.453125q0.28125 0.171875 0.8125 0.171875q0.390625 0 1.046875 -0.09375zm11.796585 -2.390625l2.453125 0.3125q-0.578125 2.140625 -2.15625 3.328125q-1.5625 1.1875 -4.0 1.1875q-3.0625 0 -4.875 -1.890625q-1.796875 -1.890625 -1.796875 -5.296875q0 -3.546875 1.8125 -5.484375q1.828125 -1.953125 4.734375 -1.953125q2.8125 0 4.578125 1.90625q1.78125 1.90625 1.78125 5.375q0 0.21875 -0.015625 0.640625l-10.4375 0q0.140625 2.296875 1.3125 3.53125q1.171875 1.21875 2.921875 1.21875q1.3125 0 2.234375 -0.671875q0.921875 -0.6875 1.453125 -2.203125zm-7.78125 -3.828125l7.8125 0q-0.15625 -1.765625 -0.890625 -2.65625q-1.140625 -1.359375 -2.953125 -1.359375q-1.625 0 -2.75 1.09375q-1.109375 1.09375 -1.21875 2.921875zm22.106186 8.34375l0 -1.765625q-1.328125 2.078125 -3.90625 2.078125q-1.671875 0 -3.078125 -0.921875q-1.40625 -0.921875 -2.1875 -2.578125q-0.765625 -1.65625 -0.765625 -3.796875q0 -2.09375 0.703125 -3.796875q0.703125 -1.71875 2.09375 -2.625q1.390625 -0.90625 3.125 -0.90625q1.265625 0 2.25 0.53125q0.984375 0.53125 1.609375 1.390625l0 -6.9375l2.359375 0l0 19.328125l-2.203125 0zm-7.5 -6.984375q0 2.6875 1.125 4.015625q1.140625 1.328125 2.6875 1.328125q1.5625 0 2.640625 -1.265625q1.09375 -1.265625 1.09375 -3.890625q0 -2.859375 -1.109375 -4.203125q-1.109375 -1.359375 -2.734375 -1.359375q-1.578125 0 -2.640625 1.296875q-1.0625 1.296875 -1.0625 4.078125zm20.668396 -9.609375l0 -2.734375l2.375 0l0 2.734375l-2.375 0zm0 16.59375l0 -14.0l2.375 0l0 14.0l-2.375 0zm5.90654 0l0 -14.0l2.140625 0l0 1.984375q1.53125 -2.296875 4.453125 -2.296875q1.265625 0 2.328125 0.453125q1.0625 0.453125 1.578125 1.1875q0.53125 0.734375 0.75 1.75q0.125 0.671875 0.125 2.3125l0 8.609375l-2.375 0l0 -8.515625q0 -1.453125 -0.28125 -2.171875q-0.265625 -0.71875 -0.984375 -1.140625q-0.703125 -0.4375 -1.640625 -0.4375q-1.515625 0 -2.625 0.96875q-1.09375 0.953125 -1.09375 3.65625l0 7.640625l-2.375 0zm23.90306 0l0 -1.765625q-1.328125 2.078125 -3.90625 2.078125q-1.671875 0 -3.078125 -0.921875q-1.40625 -0.921875 -2.1875 -2.578125q-0.765625 -1.65625 -0.765625 -3.796875q0 -2.09375 0.703125 -3.796875q0.703125 -1.71875 2.09375 -2.625q1.390625 -0.90625 3.125 -0.90625q1.265625 0 2.25 0.53125q0.984375 0.53125 1.609375 1.390625l0 -6.9375l2.359375 0l0 19.328125l-2.203125 0zm-7.5 -6.984375q0 2.6875 1.125 4.015625q1.140625 1.328125 2.6875 1.328125q1.5625 0 2.640625 -1.265625q1.09375 -1.265625 1.09375 -3.890625q0 -2.859375 -1.109375 -4.203125q-1.109375 -1.359375 -2.734375 -1.359375q-1.578125 0 -2.640625 1.296875q-1.0625 1.296875 -1.0625 4.078125zm22.824936 2.46875l2.453125 0.3125q-0.578125 2.140625 -2.15625 3.328125q-1.5625 1.1875 -4.0 1.1875q-3.0625 0 -4.875 -1.890625q-1.796875 -1.890625 -1.796875 -5.296875q0 -3.546875 1.8125 -5.484375q1.828125 -1.953125 4.734375 -1.953125q2.8125 0 4.578125 1.90625q1.78125 1.90625 1.78125 5.375q0 0.21875 -0.015625 0.640625l-10.4375 0q0.140625 2.296875 1.3125 3.53125q1.171875 1.21875 2.921875 1.21875q1.3125 0 2.234375 -0.671875q0.921875 -0.6875 1.453125 -2.203125zm-7.78125 -3.828125l7.8125 0q-0.15625 -1.765625 -0.890625 -2.65625q-1.140625 -1.359375 -2.953125 -1.359375q-1.625 0 -2.75 1.09375q-1.109375 1.09375 -1.21875 2.921875zm11.449936 8.34375l5.109375 -7.28125l-4.734375 -6.71875l2.96875 0l2.15625 3.28125q0.59375 0.9375 0.96875 1.5625q0.578125 -0.859375 1.0625 -1.53125l2.359375 -3.3125l2.84375 0l-4.84375 6.59375l5.203125 7.40625l-2.90625 0l-2.875 -4.34375l-0.765625 -1.1875l-3.671875 5.53125l-2.875 0z" fill-rule="nonzero"></path></g></svg>

