<?xml version="1.0" standalone="yes"?>

<svg version="1.1" viewBox="0.0 0.0 960.0 540.0" fill="none" stroke="none" stroke-linecap="square" stroke-miterlimit="10" xmlns="http://www.w3.org/2000/svg" xmlns:xlink="http://www.w3.org/1999/xlink"><clipPath id="g102ee82e84_0_0.0"><path d="m0 0l960.0 0l0 540.0l-960.0 0l0 -540.0z" clip-rule="nonzero"></path></clipPath><g clip-path="url(#g102ee82e84_0_0.0)"><path fill="#ffffff" d="m0 0l960.0 0l0 540.0l-960.0 0z" fill-rule="nonzero"></path><path stroke="#9e9e9e" stroke-width="1.0" stroke-linecap="butt" d="m527.3832 112.843834l0 410.57217" fill-rule="nonzero"></path><path stroke="#9e9e9e" stroke-width="1.0" stroke-linecap="butt" d="m598.3858 112.843834l0 410.57217" fill-rule="nonzero"></path><path stroke="#9e9e9e" stroke-width="1.0" stroke-linecap="butt" d="m732.7559 112.843834l0 410.57217" fill-rule="nonzero"></path><path stroke="#9e9e9e" stroke-width="1.0" stroke-linecap="butt" d="m890.8163 112.843834l0 410.57217" fill-rule="nonzero"></path><path stroke="#9e9e9e" stroke-width="1.0" stroke-linecap="butt" d="m526.8845 113.34252l364.43042 0" fill-rule="nonzero"></path><path stroke="#9e9e9e" stroke-width="1.0" stroke-linecap="butt" d="m526.8845 164.53937l364.43042 0" fill-rule="nonzero"></path><path stroke="#9e9e9e" stroke-width="1.0" stroke-linecap="butt" d="m526.8845 215.73622l364.43042 0" fill-rule="nonzero"></path><path stroke="#9e9e9e" stroke-width="1.0" stroke-linecap="butt" d="m526.8845 266.93307l364.43042 0" fill-rule="nonzero"></path><path stroke="#9e9e9e" stroke-width="1.0" stroke-linecap="butt" d="m526.8845 318.1299l364.43042 0" fill-rule="nonzero"></path><path stroke="#9e9e9e" stroke-width="1.0" stroke-linecap="butt" d="m526.8845 369.32678l364.43042 0" fill-rule="nonzero"></path><path stroke="#9e9e9e" stroke-width="1.0" stroke-linecap="butt" d="m526.8845 420.52362l364.43042 0" fill-rule="nonzero"></path><path stroke="#9e9e9e" stroke-width="1.0" stroke-linecap="butt" d="m526.8845 471.72046l364.43042 0" fill-rule="nonzero"></path><path stroke="#9e9e9e" stroke-width="1.0" stroke-linecap="butt" d="m526.8845 522.9173l364.43042 0" fill-rule="nonzero"></path><path fill="#000000" d="m538.8988 147.94252l0 -19.328125l2.5625 0l0 19.328125l-2.5625 0zm6.968506 0l0 -19.328125l6.65625 0q2.265625 0 3.453125 0.28125q1.65625 0.375 2.828125 1.375q1.53125 1.296875 2.28125 3.3125q0.765625 2.0 0.765625 4.59375q0 2.203125 -0.515625 3.90625q-0.515625 1.6875 -1.328125 2.8125q-0.796875 1.109375 -1.75 1.75q-0.953125 0.640625 -2.3125 0.96875q-1.34375 0.328125 -3.09375 0.328125l-6.984375 0zm2.5625 -2.28125l4.125 0q1.90625 0 3.0 -0.359375q1.09375 -0.359375 1.734375 -1.0q0.90625 -0.90625 1.40625 -2.4375q0.515625 -1.546875 0.515625 -3.734375q0 -3.03125 -1.0 -4.65625q-0.984375 -1.625 -2.40625 -2.1875q-1.03125 -0.390625 -3.3125 -0.390625l-4.0625 0l0 14.765625z" fill-rule="nonzero"></path><path fill="#000000" d="m614.3858 147.94252l0 -17.046875l-6.359375 0l0 -2.28125l15.3125 0l0 2.28125l-6.390625 0l0 17.046875l-2.5625 0zm20.64209 -4.515625l2.453125 0.3125q-0.578125 2.140625 -2.15625 3.328125q-1.5625 1.1875 -4.0 1.1875q-3.0625 0 -4.875 -1.890625q-1.796875 -1.890625 -1.796875 -5.296875q0 -3.546875 1.8125 -5.484375q1.828125 -1.953125 4.734375 -1.953125q2.8125 0 4.578125 1.90625q1.78125 1.90625 1.78125 5.375q0 0.21875 -0.015625 0.640625l-10.4375 0q0.140625 2.296875 1.3125 3.53125q1.171875 1.21875 2.921875 1.21875q1.3125 0 2.234375 -0.671875q0.921875 -0.6875 1.453125 -2.203125zm-7.78125 -3.828125l7.8125 0q-0.15625 -1.765625 -0.890625 -2.65625q-1.140625 -1.359375 -2.953125 -1.359375q-1.625 0 -2.75 1.09375q-1.109375 1.09375 -1.21875 2.921875zm12.996826 8.34375l0 -14.0l2.140625 0l0 2.125q0.8125 -1.5 1.5 -1.96875q0.703125 -0.46875 1.53125 -0.46875q1.203125 0 2.4375 0.765625l-0.8125 2.203125q-0.875 -0.515625 -1.75 -0.515625q-0.765625 0 -1.390625 0.46875q-0.625 0.46875 -0.890625 1.296875q-0.390625 1.265625 -0.390625 2.765625l0 7.328125l-2.375 0zm8.907959 0l0 -14.0l2.125 0l0 1.96875q0.65625 -1.03125 1.75 -1.65625q1.09375 -0.625 2.484375 -0.625q1.5625 0 2.546875 0.640625q1.0 0.640625 1.421875 1.8125q1.65625 -2.453125 4.3125 -2.453125q2.09375 0 3.203125 1.15625q1.125 1.140625 1.125 3.546875l0 9.609375l-2.359375 0l0 -8.8125q0 -1.4375 -0.234375 -2.0625q-0.21875 -0.625 -0.828125 -1.0q-0.609375 -0.390625 -1.421875 -0.390625q-1.484375 0 -2.46875 0.984375q-0.96875 0.984375 -0.96875 3.140625l0 8.140625l-2.375 0l0 -9.09375q0 -1.578125 -0.578125 -2.375q-0.578125 -0.796875 -1.890625 -0.796875q-1.0 0 -1.859375 0.53125q-0.84375 0.53125 -1.234375 1.546875q-0.375 1.015625 -0.375 2.921875l0 7.265625l-2.375 0z" fill-rule="nonzero"></path><path fill="#000000" d="m743.83405 147.94252l0 -19.328125l6.65625 0q2.265625 0 3.453125 0.28125q1.65625 0.375 2.828125 1.375q1.53125 1.296875 2.28125 3.3125q0.765625 2.0 0.765625 4.59375q0 2.203125 -0.515625 3.90625q-0.515625 1.6875 -1.328125 2.8125q-0.796875 1.109375 -1.75 1.75q-0.953125 0.640625 -2.3125 0.96875q-1.34375 0.328125 -3.09375 0.328125l-6.984375 0zm2.5625 -2.28125l4.125 0q1.90625 0 3.0 -0.359375q1.09375 -0.359375 1.734375 -1.0q0.90625 -0.90625 1.40625 -2.4375q0.515625 -1.546875 0.515625 -3.734375q0 -3.03125 -1.0 -4.65625q-0.984375 -1.625 -2.40625 -2.1875q-1.03125 -0.390625 -3.3125 -0.390625l-4.0625 0l0 14.765625zm15.500305 -4.71875q0 -3.890625 2.171875 -5.765625q1.796875 -1.546875 4.40625 -1.546875q2.875 0 4.703125 1.890625q1.84375 1.890625 1.84375 5.21875q0 2.703125 -0.8125 4.265625q-0.8125 1.546875 -2.359375 2.40625q-1.546875 0.84375 -3.375 0.84375q-2.953125 0 -4.765625 -1.875q-1.8125 -1.890625 -1.8125 -5.4375zm2.4375 0q0 2.6875 1.171875 4.03125q1.1875 1.328125 2.96875 1.328125q1.765625 0 2.9375 -1.34375q1.171875 -1.34375 1.171875 -4.09375q0 -2.59375 -1.1875 -3.9375q-1.171875 -1.34375 -2.921875 -1.34375q-1.78125 0 -2.96875 1.34375q-1.171875 1.328125 -1.171875 4.015625zm22.41864 1.875l2.328125 0.296875q-0.375 2.421875 -1.953125 3.78125q-1.578125 1.359375 -3.875 1.359375q-2.875 0 -4.625 -1.875q-1.734375 -1.875 -1.734375 -5.390625q0 -2.265625 0.75 -3.953125q0.75 -1.703125 2.28125 -2.546875q1.53125 -0.859375 3.34375 -0.859375q2.28125 0 3.71875 1.15625q1.453125 1.140625 1.875 3.265625l-2.3125 0.359375q-0.328125 -1.40625 -1.171875 -2.109375q-0.828125 -0.71875 -2.015625 -0.71875q-1.796875 0 -2.921875 1.28125q-1.109375 1.28125 -1.109375 4.0625q0 2.828125 1.078125 4.109375q1.078125 1.265625 2.8125 1.265625q1.40625 0 2.34375 -0.84375q0.9375 -0.859375 1.1875 -2.640625zm13.359375 5.125l0 -2.0625q-1.625 2.375 -4.4375 2.375q-1.234375 0 -2.3125 -0.46875q-1.078125 -0.484375 -1.609375 -1.1875q-0.515625 -0.71875 -0.71875 -1.765625q-0.140625 -0.703125 -0.140625 -2.21875l0 -8.671875l2.359375 0l0 7.765625q0 1.859375 0.15625 2.5q0.21875 0.9375 0.9375 1.46875q0.734375 0.53125 1.796875 0.53125q1.078125 0 2.0 -0.546875q0.9375 -0.546875 1.328125 -1.484375q0.390625 -0.9375 0.390625 -2.734375l0 -7.5l2.375 0l0 14.0l-2.125 0zm5.653076 0l0 -14.0l2.125 0l0 1.96875q0.65625 -1.03125 1.75 -1.65625q1.09375 -0.625 2.484375 -0.625q1.5625 0 2.546875 0.640625q1.0 0.640625 1.421875 1.8125q1.65625 -2.453125 4.3125 -2.453125q2.09375 0 3.203125 1.15625q1.125 1.140625 1.125 3.546875l0 9.609375l-2.359375 0l0 -8.8125q0 -1.4375 -0.234375 -2.0625q-0.21875 -0.625 -0.828125 -1.0q-0.609375 -0.390625 -1.421875 -0.390625q-1.484375 0 -2.46875 0.984375q-0.96875 0.984375 -0.96875 3.140625l0 8.140625l-2.375 0l0 -9.09375q0 -1.578125 -0.578125 -2.375q-0.578125 -0.796875 -1.890625 -0.796875q-1.0 0 -1.859375 0.53125q-0.84375 0.53125 -1.234375 1.546875q-0.375 1.015625 -0.375 2.921875l0 7.265625l-2.375 0zm31.78302 -4.515625l2.453125 0.3125q-0.578125 2.140625 -2.15625 3.328125q-1.5625 1.1875 -4.0 1.1875q-3.0625 0 -4.875 -1.890625q-1.796875 -1.890625 -1.796875 -5.296875q0 -3.546875 1.8125 -5.484375q1.828125 -1.953125 4.734375 -1.953125q2.8125 0 4.578125 1.90625q1.78125 1.90625 1.78125 5.375q0 0.21875 -0.015625 0.640625l-10.4375 0q0.140625 2.296875 1.3125 3.53125q1.171875 1.21875 2.921875 1.21875q1.3125 0 2.234375 -0.671875q0.921875 -0.6875 1.453125 -2.203125zm-7.78125 -3.828125l7.8125 0q-0.15625 -1.765625 -0.890625 -2.65625q-1.140625 -1.359375 -2.953125 -1.359375q-1.625 0 -2.75 1.09375q-1.109375 1.09375 -1.21875 2.921875zm13.028015 8.34375l0 -14.0l2.140625 0l0 1.984375q1.53125 -2.296875 4.453125 -2.296875q1.265625 0 2.328125 0.453125q1.0625 0.453125 1.578125 1.1875q0.53125 0.734375 0.75 1.75q0.125 0.671875 0.125 2.3125l0 8.609375l-2.375 0l0 -8.515625q0 -1.453125 -0.28125 -2.171875q-0.265625 -0.71875 -0.984375 -1.140625q-0.703125 -0.4375 -1.640625 -0.4375q-1.515625 0 -2.625 0.96875q-1.09375 0.953125 -1.09375 3.65625l0 7.640625l-2.375 0zm20.012451 -2.125l0.328125 2.09375q-1.0 0.21875 -1.78125 0.21875q-1.296875 0 -2.015625 -0.40625q-0.703125 -0.421875 -1.0 -1.078125q-0.28125 -0.671875 -0.28125 -2.796875l0 -8.0625l-1.75 0l0 -1.84375l1.75 0l0 -3.46875l2.359375 -1.421875l0 4.890625l2.390625 0l0 1.84375l-2.390625 0l0 8.1875q0 1.015625 0.125 1.3125q0.125 0.28125 0.40625 0.453125q0.28125 0.171875 0.8125 0.171875q0.390625 0 1.046875 -0.09375zm1.2653198 -2.046875l2.34375 -0.375q0.203125 1.40625 1.109375 2.15625q0.90625 0.75 2.515625 0.75q1.640625 0 2.421875 -0.65625q0.796875 -0.671875 0.796875 -1.5625q0 -0.8125 -0.6875 -1.265625q-0.5 -0.3125 -2.4375 -0.8125q-2.609375 -0.65625 -3.625 -1.125q-1.0 -0.484375 -1.53125 -1.328125q-0.515625 -0.859375 -0.515625 -1.890625q0 -0.9375 0.421875 -1.734375q0.4375 -0.796875 1.1875 -1.328125q0.546875 -0.40625 1.5 -0.6875q0.953125 -0.28125 2.046875 -0.28125q1.65625 0 2.890625 0.46875q1.25 0.46875 1.84375 1.28125q0.59375 0.8125 0.828125 2.171875l-2.328125 0.3125q-0.15625 -1.078125 -0.921875 -1.671875q-0.75 -0.609375 -2.140625 -0.609375q-1.625 0 -2.328125 0.546875q-0.703125 0.53125 -0.703125 1.25q0 0.46875 0.296875 0.828125q0.28125 0.390625 0.90625 0.640625q0.359375 0.125 2.09375 0.609375q2.515625 0.671875 3.515625 1.09375q1.0 0.421875 1.5625 1.25q0.5625 0.8125 0.5625 2.03125q0 1.1875 -0.6875 2.234375q-0.6875 1.046875 -2.0 1.625q-1.296875 0.5625 -2.953125 0.5625q-2.71875 0 -4.15625 -1.125q-1.4375 -1.140625 -1.828125 -3.359375z" fill-rule="nonzero"></path><path fill="#000000" d="m546.4457 199.13937l-2.375 0l0 -15.125q-0.859375 0.828125 -2.25 1.640625q-1.390625 0.8125 -2.5 1.21875l0 -2.296875q2.0 -0.921875 3.484375 -2.25q1.484375 -1.34375 2.109375 -2.59375l1.53125 0l0 19.40625z" fill-rule="nonzero"></path><path fill="#000000" d="m614.35455 197.01437l0.328125 2.09375q-1.0 0.21875 -1.78125 0.21875q-1.296875 0 -2.015625 -0.40625q-0.703125 -0.421875 -1.0 -1.078125q-0.28125 -0.671875 -0.28125 -2.796875l0 -8.0625l-1.75 0l0 -1.84375l1.75 0l0 -3.46875l2.359375 -1.421875l0 4.890625l2.390625 0l0 1.84375l-2.390625 0l0 8.1875q0 1.015625 0.125 1.3125q0.125 0.28125 0.40625 0.453125q0.28125 0.171875 0.8125 0.171875q0.390625 0 1.046875 -0.09375zm11.390381 2.125l0 -2.0625q-1.625 2.375 -4.4375 2.375q-1.234375 0 -2.3125 -0.46875q-1.078125 -0.484375 -1.609375 -1.1875q-0.515625 -0.71875 -0.71875 -1.765625q-0.140625 -0.703125 -0.140625 -2.21875l0 -8.671875l2.359375 0l0 7.765625q0 1.859375 0.15625 2.5q0.21875 0.9375 0.9375 1.46875q0.734375 0.53125 1.796875 0.53125q1.078125 0 2.0 -0.546875q0.9375 -0.546875 1.328125 -1.484375q0.390625 -0.9375 0.390625 -2.734375l0 -7.5l2.375 0l0 14.0l-2.125 0zm5.621765 0l0 -14.0l2.140625 0l0 2.125q0.8125 -1.5 1.5 -1.96875q0.703125 -0.46875 1.53125 -0.46875q1.203125 0 2.4375 0.765625l-0.8125 2.203125q-0.875 -0.515625 -1.75 -0.515625q-0.765625 0 -1.390625 0.46875q-0.625 0.46875 -0.890625 1.296875q-0.390625 1.265625 -0.390625 2.765625l0 7.328125l-2.375 0zm14.09552 -2.125l0.328125 2.09375q-1.0 0.21875 -1.78125 0.21875q-1.296875 0 -2.015625 -0.40625q-0.703125 -0.421875 -1.0 -1.078125q-0.28125 -0.671875 -0.28125 -2.796875l0 -8.0625l-1.75 0l0 -1.84375l1.75 0l0 -3.46875l2.359375 -1.421875l0 4.890625l2.390625 0l0 1.84375l-2.390625 0l0 8.1875q0 1.015625 0.125 1.3125q0.125 0.28125 0.40625 0.453125q0.28125 0.171875 0.8125 0.171875q0.390625 0 1.046875 -0.09375zm2.1715698 2.125l0 -19.328125l2.359375 0l0 19.328125l-2.359375 0zm15.54718 -4.515625l2.453125 0.3125q-0.578125 2.140625 -2.15625 3.328125q-1.5625 1.1875 -4.0 1.1875q-3.0625 0 -4.875 -1.890625q-1.796875 -1.890625 -1.796875 -5.296875q0 -3.546875 1.8125 -5.484375q1.828125 -1.953125 4.734375 -1.953125q2.8125 0 4.578125 1.90625q1.78125 1.90625 1.78125 5.375q0 0.21875 -0.015625 0.640625l-10.4375 0q0.140625 2.296875 1.3125 3.53125q1.171875 1.21875 2.921875 1.21875q1.3125 0 2.234375 -0.671875q0.921875 -0.6875 1.453125 -2.203125zm-7.78125 -3.828125l7.8125 0q-0.15625 -1.765625 -0.890625 -2.65625q-1.140625 -1.359375 -2.953125 -1.359375q-1.625 0 -2.75 1.09375q-1.109375 1.09375 -1.21875 2.921875z" fill-rule="nonzero"></path><path fill="#000000" d="m742.8809 189.60812q0 -3.421875 0.703125 -5.515625q0.703125 -2.09375 2.09375 -3.21875q1.390625 -1.140625 3.5 -1.140625q1.5625 0 2.734375 0.625q1.171875 0.625 1.9375 1.8125q0.765625 1.171875 1.1875 2.875q0.4375 1.6875 0.4375 4.5625q0 3.40625 -0.703125 5.5q-0.6875 2.078125 -2.078125 3.21875q-1.390625 1.140625 -3.515625 1.140625q-2.796875 0 -4.390625 -2.0q-1.90625 -2.421875 -1.90625 -7.859375zm2.4375 0q0 4.765625 1.109375 6.34375q1.109375 1.5625 2.75 1.5625q1.640625 0 2.75 -1.578125q1.109375 -1.578125 1.109375 -6.328125q0 -4.765625 -1.109375 -6.328125q-1.109375 -1.578125 -2.78125 -1.578125q-1.625 0 -2.609375 1.375q-1.21875 1.765625 -1.21875 6.53125zm13.668701 9.53125l0 -2.703125l2.703125 0l0 2.703125q0 1.484375 -0.53125 2.40625q-0.53125 0.921875 -1.671875 1.421875l-0.671875 -1.015625q0.765625 -0.328125 1.109375 -0.96875q0.359375 -0.640625 0.40625 -1.84375l-1.34375 0zm22.46814 0l-2.375 0l0 -15.125q-0.859375 0.828125 -2.25 1.640625q-1.390625 0.8125 -2.5 1.21875l0 -2.296875q2.0 -0.921875 3.484375 -2.25q1.484375 -1.34375 2.109375 -2.59375l1.53125 0l0 19.40625z" fill-rule="nonzero"></path><path fill="#000000" d="m549.9769 248.05496l0 2.28125l-12.78125 0q-0.015625 -0.859375 0.28125 -1.640625q0.484375 -1.3125 1.5625 -2.578125q1.078125 -1.265625 3.109375 -2.921875q3.140625 -2.59375 4.25 -4.09375q1.109375 -1.515625 1.109375 -2.859375q0 -1.40625 -1.015625 -2.375q-1.0 -0.96875 -2.625 -0.96875q-1.703125 0 -2.734375 1.03125q-1.03125 1.015625 -1.046875 2.84375l-2.4375 -0.25q0.25 -2.734375 1.875 -4.15625q1.640625 -1.4375 4.40625 -1.4375q2.78125 0 4.390625 1.546875q1.625 1.53125 1.625 3.8125q0 1.171875 -0.484375 2.296875q-0.46875 1.109375 -1.5625 2.359375q-1.09375 1.234375 -3.65625 3.390625q-2.140625 1.796875 -2.75 2.4375q-0.59375 0.640625 -1.0 1.28125l9.484375 0z" fill-rule="nonzero"></path><path fill="#000000" d="m609.1202 250.33621l0 -19.328125l2.359375 0l0 19.328125l-2.359375 0zm5.07843 -7.0q0 -3.890625 2.171875 -5.765625q1.796875 -1.546875 4.40625 -1.546875q2.875 0 4.703125 1.890625q1.84375 1.890625 1.84375 5.21875q0 2.703125 -0.8125 4.265625q-0.8125 1.546875 -2.359375 2.40625q-1.546875 0.84375 -3.375 0.84375q-2.953125 0 -4.765625 -1.875q-1.8125 -1.890625 -1.8125 -5.4375zm2.4375 0q0 2.6875 1.171875 4.03125q1.1875 1.328125 2.96875 1.328125q1.765625 0 2.9375 -1.34375q1.171875 -1.34375 1.171875 -4.09375q0 -2.59375 -1.1875 -3.9375q-1.171875 -1.34375 -2.921875 -1.34375q-1.78125 0 -2.96875 1.34375q-1.171875 1.328125 -1.171875 4.015625zm17.168701 7.0l-5.328125 -14.0l2.5 0l3.015625 8.390625q0.484375 1.34375 0.890625 2.8125q0.3125 -1.109375 0.890625 -2.65625l3.109375 -8.546875l2.4375 0l-5.296875 14.0l-2.21875 0zm19.015625 -4.515625l2.453125 0.3125q-0.578125 2.140625 -2.15625 3.328125q-1.5625 1.1875 -4.0 1.1875q-3.0625 0 -4.875 -1.890625q-1.796875 -1.890625 -1.796875 -5.296875q0 -3.546875 1.8125 -5.484375q1.828125 -1.953125 4.734375 -1.953125q2.8125 0 4.578125 1.90625q1.78125 1.90625 1.78125 5.375q0 0.21875 -0.015625 0.640625l-10.4375 0q0.140625 2.296875 1.3125 3.53125q1.171875 1.21875 2.921875 1.21875q1.3125 0 2.234375 -0.671875q0.921875 -0.6875 1.453125 -2.203125zm-7.78125 -3.828125l7.8125 0q-0.15625 -1.765625 -0.890625 -2.65625q-1.140625 -1.359375 -2.953125 -1.359375q-1.625 0 -2.75 1.09375q-1.109375 1.09375 -1.21875 2.921875z" fill-rule="nonzero"></path><path fill="#000000" d="m742.8809 240.80496q0 -3.421875 0.703125 -5.515625q0.703125 -2.09375 2.09375 -3.21875q1.390625 -1.140625 3.5 -1.140625q1.5625 0 2.734375 0.625q1.171875 0.625 1.9375 1.8125q0.765625 1.171875 1.1875 2.875q0.4375 1.6875 0.4375 4.5625q0 3.40625 -0.703125 5.5q-0.6875 2.078125 -2.078125 3.21875q-1.390625 1.140625 -3.515625 1.140625q-2.796875 0 -4.390625 -2.0q-1.90625 -2.421875 -1.90625 -7.859375zm2.4375 0q0 4.765625 1.109375 6.34375q1.109375 1.5625 2.75 1.5625q1.640625 0 2.75 -1.578125q1.109375 -1.578125 1.109375 -6.328125q0 -4.765625 -1.109375 -6.328125q-1.109375 -1.578125 -2.78125 -1.578125q-1.625 0 -2.609375 1.375q-1.21875 1.765625 -1.21875 6.53125zm13.668701 9.53125l0 -2.703125l2.703125 0l0 2.703125q0 1.484375 -0.53125 2.40625q-0.53125 0.921875 -1.671875 1.421875l-0.671875 -1.015625q0.765625 -0.328125 1.109375 -0.96875q0.359375 -0.640625 0.40625 -1.84375l-1.34375 0zm22.46814 0l-2.375 0l0 -15.125q-0.859375 0.828125 -2.25 1.640625q-1.390625 0.8125 -2.5 1.21875l0 -2.296875q2.0 -0.921875 3.484375 -2.25q1.484375 -1.34375 2.109375 -2.59375l1.53125 0l0 19.40625z" fill-rule="nonzero"></path><path fill="#000000" d="m537.5238 296.4237l2.359375 -0.3125q0.421875 2.015625 1.390625 2.90625q0.984375 0.890625 2.40625 0.890625q1.671875 0 2.8125 -1.15625q1.15625 -1.15625 1.15625 -2.875q0 -1.640625 -1.0625 -2.6875q-1.0625 -1.0625 -2.71875 -1.0625q-0.671875 0 -1.671875 0.25l0.265625 -2.078125q0.234375 0.03125 0.375 0.03125q1.515625 0 2.734375 -0.78125q1.21875 -0.796875 1.21875 -2.453125q0 -1.296875 -0.890625 -2.15625q-0.875 -0.859375 -2.28125 -0.859375q-1.375 0 -2.296875 0.875q-0.921875 0.859375 -1.1875 2.609375l-2.375 -0.421875q0.4375 -2.390625 1.96875 -3.703125q1.546875 -1.3125 3.84375 -1.3125q1.578125 0 2.90625 0.6875q1.34375 0.671875 2.046875 1.84375q0.703125 1.171875 0.703125 2.484375q0 1.265625 -0.671875 2.296875q-0.671875 1.015625 -2.0 1.625q1.71875 0.390625 2.671875 1.640625q0.953125 1.25 0.953125 3.125q0 2.53125 -1.859375 4.296875q-1.84375 1.75 -4.65625 1.75q-2.546875 0 -4.234375 -1.515625q-1.671875 -1.515625 -1.90625 -3.9375z" fill-rule="nonzero"></path><path fill="#000000" d="m609.16705 306.89246l0 -19.359375l2.15625 0l0 1.8125q0.765625 -1.0625 1.71875 -1.59375q0.96875 -0.53125 2.34375 -0.53125q1.796875 0 3.15625 0.921875q1.375 0.921875 2.078125 2.609375q0.703125 1.671875 0.703125 3.671875q0 2.15625 -0.78125 3.875q-0.765625 1.71875 -2.234375 2.640625q-1.46875 0.90625 -3.09375 0.90625q-1.1875 0 -2.125 -0.5q-0.9375 -0.5 -1.546875 -1.265625l0 6.8125l-2.375 0zm2.140625 -12.28125q0 2.703125 1.09375 4.0q1.109375 1.28125 2.65625 1.28125q1.578125 0 2.703125 -1.328125q1.140625 -1.34375 1.140625 -4.15625q0 -2.671875 -1.109375 -4.0q-1.09375 -1.328125 -2.625 -1.328125q-1.515625 0 -2.6875 1.421875q-1.171875 1.40625 -1.171875 4.109375zm12.699951 -9.671875l0 -2.734375l2.375 0l0 2.734375l-2.375 0zm0 16.59375l0 -14.0l2.375 0l0 14.0l-2.375 0zm4.656555 0l0 -1.921875l8.90625 -10.234375q-1.515625 0.078125 -2.671875 0.078125l-5.703125 0l0 -1.921875l11.4375 0l0 1.5625l-7.578125 8.890625l-1.46875 1.625q1.59375 -0.125 3.0 -0.125l6.46875 0l0 2.046875l-12.390625 0zm13.328125 0l0 -1.921875l8.90625 -10.234375q-1.515625 0.078125 -2.671875 0.078125l-5.703125 0l0 -1.921875l11.4375 0l0 1.5625l-7.578125 8.890625l-1.46875 1.625q1.59375 -0.125 3.0 -0.125l6.46875 0l0 2.046875l-12.390625 0zm23.71875 -1.734375q-1.328125 1.125 -2.546875 1.59375q-1.21875 0.453125 -2.609375 0.453125q-2.3125 0 -3.5625 -1.125q-1.234375 -1.125 -1.234375 -2.875q0 -1.03125 0.46875 -1.875q0.46875 -0.859375 1.21875 -1.375q0.765625 -0.515625 1.71875 -0.78125q0.703125 -0.171875 2.109375 -0.34375q2.875 -0.34375 4.234375 -0.828125q0.015625 -0.484375 0.015625 -0.609375q0 -1.453125 -0.671875 -2.046875q-0.90625 -0.8125 -2.703125 -0.8125q-1.671875 0 -2.46875 0.59375q-0.796875 0.578125 -1.1875 2.078125l-2.3125 -0.3125q0.3125 -1.5 1.03125 -2.40625q0.734375 -0.921875 2.09375 -1.40625q1.375 -0.5 3.1875 -0.5q1.796875 0 2.90625 0.421875q1.125 0.421875 1.640625 1.0625q0.53125 0.640625 0.75 1.609375q0.125 0.609375 0.125 2.1875l0 3.171875q0 3.296875 0.140625 4.1875q0.15625 0.875 0.609375 1.671875l-2.484375 0q-0.375 -0.734375 -0.46875 -1.734375zm-0.203125 -5.296875q-1.296875 0.53125 -3.875 0.90625q-1.46875 0.203125 -2.078125 0.46875q-0.59375 0.265625 -0.9375 0.78125q-0.328125 0.5 -0.328125 1.125q0 0.9375 0.71875 1.578125q0.71875 0.625 2.109375 0.625q1.375 0 2.4375 -0.59375q1.0625 -0.609375 1.578125 -1.640625q0.375 -0.8125 0.375 -2.375l0 -0.875z" fill-rule="nonzero"></path><path fill="#000000" d="m742.8809 292.00183q0 -3.421875 0.703125 -5.515625q0.703125 -2.09375 2.09375 -3.21875q1.390625 -1.140625 3.5 -1.140625q1.5625 0 2.734375 0.625q1.171875 0.625 1.9375 1.8125q0.765625 1.171875 1.1875 2.875q0.4375 1.6875 0.4375 4.5625q0 3.40625 -0.703125 5.5q-0.6875 2.078125 -2.078125 3.21875q-1.390625 1.140625 -3.515625 1.140625q-2.796875 0 -4.390625 -2.0q-1.90625 -2.421875 -1.90625 -7.859375zm2.4375 0q0 4.765625 1.109375 6.34375q1.109375 1.5625 2.75 1.5625q1.640625 0 2.75 -1.578125q1.109375 -1.578125 1.109375 -6.328125q0 -4.765625 -1.109375 -6.328125q-1.109375 -1.578125 -2.78125 -1.578125q-1.625 0 -2.609375 1.375q-1.21875 1.765625 -1.21875 6.53125zm13.668701 9.53125l0 -2.703125l2.703125 0l0 2.703125q0 1.484375 -0.53125 2.40625q-0.53125 0.921875 -1.671875 1.421875l-0.671875 -1.015625q0.765625 -0.328125 1.109375 -0.96875q0.359375 -0.640625 0.40625 -1.84375l-1.34375 0zm18.593445 -2.28125l0 2.28125l-12.78125 0q-0.015625 -0.859375 0.28125 -1.640625q0.484375 -1.3125 1.5625 -2.578125q1.078125 -1.265625 3.109375 -2.921875q3.140625 -2.59375 4.25 -4.09375q1.109375 -1.515625 1.109375 -2.859375q0 -1.40625 -1.015625 -2.375q-1.0 -0.96875 -2.625 -0.96875q-1.703125 0 -2.734375 1.03125q-1.03125 1.015625 -1.046875 2.84375l-2.4375 -0.25q0.25 -2.734375 1.875 -4.15625q1.640625 -1.4375 4.40625 -1.4375q2.78125 0 4.390625 1.546875q1.625 1.53125 1.625 3.8125q0 1.171875 -0.484375 2.296875q-0.46875 1.109375 -1.5625 2.359375q-1.09375 1.234375 -3.65625 3.390625q-2.140625 1.796875 -2.75 2.4375q-0.59375 0.640625 -1.0 1.28125l9.484375 0z" fill-rule="nonzero"></path><path fill="#000000" d="m545.11755 352.72992l0 -4.625l-8.390625 0l0 -2.171875l8.8125 -12.53125l1.9375 0l0 12.53125l2.625 0l0 2.171875l-2.625 0l0 4.625l-2.359375 0zm0 -6.796875l0 -8.71875l-6.0625 8.71875l6.0625 0z" fill-rule="nonzero"></path><path fill="#000000" d="m609.1827 336.13617l0 -2.734375l2.375 0l0 2.734375l-2.375 0zm0 16.59375l0 -14.0l2.375 0l0 14.0l-2.375 0z" fill-rule="nonzero"></path><path fill="#000000" d="m751.8184 352.72992l-2.375 0l0 -15.125q-0.859375 0.828125 -2.25 1.640625q-1.390625 0.8125 -2.5 1.21875l0 -2.296875q2.0 -0.921875 3.484375 -2.25q1.484375 -1.34375 2.109375 -2.59375l1.53125 0l0 19.40625z" fill-rule="nonzero"></path><path fill="#000000" d="m537.5082 398.86426l2.484375 -0.21875q0.28125 1.828125 1.28125 2.75q1.015625 0.90625 2.4375 0.90625q1.71875 0 2.90625 -1.28125q1.1875 -1.296875 1.1875 -3.4375q0 -2.03125 -1.140625 -3.203125q-1.140625 -1.171875 -2.984375 -1.171875q-1.15625 0 -2.078125 0.53125q-0.921875 0.515625 -1.453125 1.34375l-2.21875 -0.296875l1.875 -9.921875l9.609375 0l0 2.265625l-7.71875 0l-1.046875 5.1875q1.75 -1.203125 3.65625 -1.203125q2.53125 0 4.265625 1.75q1.75 1.75 1.75 4.515625q0 2.625 -1.53125 4.53125q-1.859375 2.34375 -5.078125 2.34375q-2.640625 0 -4.3125 -1.46875q-1.65625 -1.484375 -1.890625 -3.921875z" fill-rule="nonzero"></path><path fill="#000000" d="m609.16705 403.92676l0 -14.0l2.125 0l0 1.96875q0.65625 -1.03125 1.75 -1.65625q1.09375 -0.625 2.484375 -0.625q1.5625 0 2.546875 0.640625q1.0 0.640625 1.421875 1.8125q1.65625 -2.453125 4.3125 -2.453125q2.09375 0 3.203125 1.15625q1.125 1.140625 1.125 3.546875l0 9.609375l-2.359375 0l0 -8.8125q0 -1.4375 -0.234375 -2.0625q-0.21875 -0.625 -0.828125 -1.0q-0.609375 -0.390625 -1.421875 -0.390625q-1.484375 0 -2.46875 0.984375q-0.96875 0.984375 -0.96875 3.140625l0 8.140625l-2.375 0l0 -9.09375q0 -1.578125 -0.578125 -2.375q-0.578125 -0.796875 -1.890625 -0.796875q-1.0 0 -1.859375 0.53125q-0.84375 0.53125 -1.234375 1.546875q-0.375 1.015625 -0.375 2.921875l0 7.265625l-2.375 0zm22.09552 5.390625l-0.265625 -2.21875q0.78125 0.203125 1.359375 0.203125q0.796875 0 1.265625 -0.265625q0.484375 -0.265625 0.78125 -0.734375q0.21875 -0.359375 0.71875 -1.765625q0.078125 -0.203125 0.21875 -0.578125l-5.3125 -14.03125l2.5625 0l2.90625 8.109375q0.5625 1.546875 1.015625 3.234375q0.40625 -1.625 0.96875 -3.1875l3.0 -8.15625l2.375 0l-5.328125 14.234375q-0.859375 2.3125 -1.328125 3.1875q-0.640625 1.171875 -1.453125 1.71875q-0.8125 0.546875 -1.953125 0.546875q-0.6875 0 -1.53125 -0.296875z" fill-rule="nonzero"></path><path fill="#000000" d="m751.8184 403.92676l-2.375 0l0 -15.125q-0.859375 0.828125 -2.25 1.640625q-1.390625 0.8125 -2.5 1.21875l0 -2.296875q2.0 -0.921875 3.484375 -2.25q1.484375 -1.34375 2.109375 -2.59375l1.53125 0l0 19.40625zm7.168701 0l0 -2.703125l2.703125 0l0 2.703125q0 1.484375 -0.53125 2.40625q-0.53125 0.921875 -1.671875 1.421875l-0.671875 -1.015625q0.765625 -0.328125 1.109375 -0.96875q0.359375 -0.640625 0.40625 -1.84375l-1.34375 0zm25.99939 -2.28125l0 2.28125l-12.78125 0q-0.015625 -0.859375 0.28125 -1.640625q0.484375 -1.3125 1.5625 -2.578125q1.078125 -1.265625 3.109375 -2.921875q3.140625 -2.59375 4.25 -4.09375q1.109375 -1.515625 1.109375 -2.859375q0 -1.40625 -1.015625 -2.375q-1.0 -0.96875 -2.625 -0.96875q-1.703125 0 -2.734375 1.03125q-1.03125 1.015625 -1.046875 2.84375l-2.4375 -0.25q0.25 -2.734375 1.875 -4.15625q1.640625 -1.4375 4.40625 -1.4375q2.78125 0 4.390625 1.546875q1.625 1.53125 1.625 3.8125q0 1.171875 -0.484375 2.296875q-0.46875 1.109375 -1.5625 2.359375q-1.09375 1.234375 -3.65625 3.390625q-2.140625 1.796875 -2.75 2.4375q-0.59375 0.640625 -1.0 1.28125l9.484375 0z" fill-rule="nonzero"></path><path fill="#000000" d="m549.8207 440.52988l-2.359375 0.1875q-0.3125 -1.40625 -0.90625 -2.03125q-0.953125 -1.015625 -2.359375 -1.015625q-1.140625 0 -2.0 0.625q-1.125 0.828125 -1.765625 2.390625q-0.640625 1.5625 -0.671875 4.46875q0.859375 -1.296875 2.09375 -1.921875q1.234375 -0.640625 2.59375 -0.640625q2.375 0 4.046875 1.75q1.671875 1.734375 1.671875 4.5q0 1.828125 -0.796875 3.390625q-0.78125 1.5625 -2.15625 2.390625q-1.359375 0.828125 -3.109375 0.828125q-2.953125 0 -4.828125 -2.171875q-1.875 -2.1875 -1.875 -7.203125q0 -5.59375 2.0625 -8.140625q1.8125 -2.21875 4.875 -2.21875q2.28125 0 3.734375 1.28125q1.453125 1.28125 1.75 3.53125zm-9.6875 8.328125q0 1.234375 0.515625 2.359375q0.515625 1.109375 1.453125 1.703125q0.9375 0.578125 1.96875 0.578125q1.5 0 2.578125 -1.203125q1.078125 -1.21875 1.078125 -3.296875q0 -2.015625 -1.0625 -3.15625q-1.0625 -1.15625 -2.6875 -1.15625q-1.609375 0 -2.734375 1.15625q-1.109375 1.140625 -1.109375 3.015625z" fill-rule="nonzero"></path><path fill="#000000" d="m609.1827 438.52988l0 -2.734375l2.375 0l0 2.734375l-2.375 0zm0 16.59375l0 -14.0l2.375 0l0 14.0l-2.375 0zm4.95343 -4.171875l2.34375 -0.375q0.203125 1.40625 1.109375 2.15625q0.90625 0.75 2.515625 0.75q1.640625 0 2.421875 -0.65625q0.796875 -0.671875 0.796875 -1.5625q0 -0.8125 -0.6875 -1.265625q-0.5 -0.3125 -2.4375 -0.8125q-2.609375 -0.65625 -3.625 -1.125q-1.0 -0.484375 -1.53125 -1.328125q-0.515625 -0.859375 -0.515625 -1.890625q0 -0.9375 0.421875 -1.734375q0.4375 -0.796875 1.1875 -1.328125q0.546875 -0.40625 1.5 -0.6875q0.953125 -0.28125 2.046875 -0.28125q1.65625 0 2.890625 0.46875q1.25 0.46875 1.84375 1.28125q0.59375 0.8125 0.828125 2.171875l-2.328125 0.3125q-0.15625 -1.078125 -0.921875 -1.671875q-0.75 -0.609375 -2.140625 -0.609375q-1.625 0 -2.328125 0.546875q-0.703125 0.53125 -0.703125 1.25q0 0.46875 0.296875 0.828125q0.28125 0.390625 0.90625 0.640625q0.359375 0.125 2.09375 0.609375q2.515625 0.671875 3.515625 1.09375q1.0 0.421875 1.5625 1.25q0.5625 0.8125 0.5625 2.03125q0 1.1875 -0.6875 2.234375q-0.6875 1.046875 -2.0 1.625q-1.296875 0.5625 -2.953125 0.5625q-2.71875 0 -4.15625 -1.125q-1.4375 -1.140625 -1.828125 -3.359375z" fill-rule="nonzero"></path><path fill="#000000" d="m755.3497 452.84238l0 2.28125l-12.78125 0q-0.015625 -0.859375 0.28125 -1.640625q0.484375 -1.3125 1.5625 -2.578125q1.078125 -1.265625 3.109375 -2.921875q3.140625 -2.59375 4.25 -4.09375q1.109375 -1.515625 1.109375 -2.859375q0 -1.40625 -1.015625 -2.375q-1.0 -0.96875 -2.625 -0.96875q-1.703125 0 -2.734375 1.03125q-1.03125 1.015625 -1.046875 2.84375l-2.4375 -0.25q0.25 -2.734375 1.875 -4.15625q1.640625 -1.4375 4.40625 -1.4375q2.78125 0 4.390625 1.546875q1.625 1.53125 1.625 3.8125q0 1.171875 -0.484375 2.296875q-0.46875 1.109375 -1.5625 2.359375q-1.09375 1.234375 -3.65625 3.390625q-2.140625 1.796875 -2.75 2.4375q-0.59375 0.640625 -1.0 1.28125l9.484375 0z" fill-rule="nonzero"></path><path fill="#000000" d="m537.6644 489.5236l0 -2.28125l12.515625 0l0 1.84375q-1.859375 1.96875 -3.671875 5.234375q-1.8125 3.25 -2.796875 6.6875q-0.703125 2.421875 -0.90625 5.3125l-2.4375 0q0.03125 -2.28125 0.890625 -5.5q0.859375 -3.234375 2.453125 -6.234375q1.609375 -3.0 3.421875 -5.0625l-9.46875 0z" fill-rule="nonzero"></path><path fill="#000000" d="m608.72955 507.4767l2.3125 0.34375q0.140625 1.078125 0.796875 1.5625q0.890625 0.65625 2.421875 0.65625q1.640625 0 2.53125 -0.65625q0.90625 -0.65625 1.21875 -1.84375q0.1875 -0.734375 0.171875 -3.046875q-1.5625 1.828125 -3.875 1.828125q-2.890625 0 -4.46875 -2.078125q-1.578125 -2.09375 -1.578125 -5.0q0 -2.0 0.71875 -3.6875q0.734375 -1.703125 2.109375 -2.625q1.375 -0.921875 3.234375 -0.921875q2.46875 0 4.078125 2.0l0 -1.6875l2.1875 0l0 12.09375q0 3.28125 -0.671875 4.640625q-0.65625 1.359375 -2.109375 2.15625q-1.4375 0.7969055 -3.546875 0.7969055q-2.5 0 -4.046875 -1.1406555q-1.53125 -1.125 -1.484375 -3.390625zm1.96875 -8.40625q0 2.75 1.09375 4.015625q1.09375 1.265625 2.734375 1.265625q1.640625 0 2.75 -1.25q1.109375 -1.265625 1.109375 -3.953125q0 -2.578125 -1.140625 -3.875q-1.140625 -1.3125 -2.75 -1.3125q-1.578125 0 -2.6875 1.296875q-1.109375 1.28125 -1.109375 3.8125zm12.403076 0.25q0 -3.890625 2.171875 -5.765625q1.796875 -1.546875 4.40625 -1.546875q2.875 0 4.703125 1.890625q1.84375 1.890625 1.84375 5.21875q0 2.703125 -0.8125 4.265625q-0.8125 1.546875 -2.359375 2.40625q-1.546875 0.84375 -3.375 0.84375q-2.953125 0 -4.765625 -1.875q-1.8125 -1.890625 -1.8125 -5.4375zm2.4375 0q0 2.6875 1.171875 4.03125q1.1875 1.328125 2.96875 1.328125q1.765625 0 2.9375 -1.34375q1.171875 -1.34375 1.171875 -4.09375q0 -2.59375 -1.1875 -3.9375q-1.171875 -1.34375 -2.921875 -1.34375q-1.78125 0 -2.96875 1.34375q-1.171875 1.328125 -1.171875 4.015625zm12.387451 0q0 -3.890625 2.171875 -5.765625q1.796875 -1.546875 4.40625 -1.546875q2.875 0 4.703125 1.890625q1.84375 1.890625 1.84375 5.21875q0 2.703125 -0.8125 4.265625q-0.8125 1.546875 -2.359375 2.40625q-1.546875 0.84375 -3.375 0.84375q-2.953125 0 -4.765625 -1.875q-1.8125 -1.890625 -1.8125 -5.4375zm2.4375 0q0 2.6875 1.171875 4.03125q1.1875 1.328125 2.96875 1.328125q1.765625 0 2.9375 -1.34375q1.171875 -1.34375 1.171875 -4.09375q0 -2.59375 -1.1875 -3.9375q-1.171875 -1.34375 -2.921875 -1.34375q-1.78125 0 -2.96875 1.34375q-1.171875 1.328125 -1.171875 4.015625zm22.356201 7.0l0 -1.765625q-1.328125 2.078125 -3.90625 2.078125q-1.671875 0 -3.078125 -0.921875q-1.40625 -0.921875 -2.1875 -2.578125q-0.765625 -1.65625 -0.765625 -3.796875q0 -2.09375 0.703125 -3.796875q0.703125 -1.71875 2.09375 -2.625q1.390625 -0.90625 3.125 -0.90625q1.265625 0 2.25 0.53125q0.984375 0.53125 1.609375 1.390625l0 -6.9375l2.359375 0l0 19.328125l-2.203125 0zm-7.5 -6.984375q0 2.6875 1.125 4.015625q1.140625 1.328125 2.6875 1.328125q1.5625 0 2.640625 -1.265625q1.09375 -1.265625 1.09375 -3.890625q0 -2.859375 -1.109375 -4.203125q-1.109375 -1.359375 -2.734375 -1.359375q-1.578125 0 -2.640625 1.296875q-1.0625 1.296875 -1.0625 4.078125z" fill-rule="nonzero"></path><path fill="#000000" d="m755.3497 504.0392l0 2.28125l-12.78125 0q-0.015625 -0.859375 0.28125 -1.640625q0.484375 -1.3125 1.5625 -2.578125q1.078125 -1.265625 3.109375 -2.921875q3.140625 -2.59375 4.25 -4.09375q1.109375 -1.515625 1.109375 -2.859375q0 -1.40625 -1.015625 -2.375q-1.0 -0.96875 -2.625 -0.96875q-1.703125 0 -2.734375 1.03125q-1.03125 1.015625 -1.046875 2.84375l-2.4375 -0.25q0.25 -2.734375 1.875 -4.15625q1.640625 -1.4375 4.40625 -1.4375q2.78125 0 4.390625 1.546875q1.625 1.53125 1.625 3.8125q0 1.171875 -0.484375 2.296875q-0.46875 1.109375 -1.5625 2.359375q-1.09375 1.234375 -3.65625 3.390625q-2.140625 1.796875 -2.75 2.4375q-0.59375 0.640625 -1.0 1.28125l9.484375 0z" fill-rule="nonzero"></path><path fill="#000000" fill-opacity="0.0" d="m365.2546 310.03656l114.74014 -0.62991333" fill-rule="nonzero"></path><path stroke="#595959" stroke-width="2.0" stroke-linejoin="round" stroke-linecap="butt" d="m365.2546 310.03656l102.740295 -0.5640259" fill-rule="evenodd"></path><path fill="#595959" stroke="#595959" stroke-width="2.0" stroke-linecap="butt" d="m468.01306 312.77594l9.057922 -3.353241l-9.094177 -3.253601z" fill-rule="evenodd"></path><path fill="#000000" fill-opacity="0.0" d="m73.48819 181.75075l263.2126 0l0 48.083786l-9.616974 9.616989l-253.59561 0z" fill-rule="nonzero"></path><path fill="#000000" fill-opacity="0.0" d="m327.0838 239.45152l1.9234009 -7.6935883l7.693573 -1.9234009z" fill-rule="nonzero"></path><path fill="#000000" fill-opacity="0.0" d="m327.0838 239.45152l1.9234009 -7.6935883l7.693573 -1.9234009l-9.616974 9.616989l-253.59561 0l0 -57.700775l263.2126 0l0 48.083786" fill-rule="nonzero"></path><path fill="#000000" fill-opacity="0.2" d="m327.0838 239.45152l1.9234009 -7.6935883l7.693573 -1.9234009z" fill-rule="nonzero"></path><path stroke="#999999" stroke-width="1.0" stroke-linejoin="round" stroke-linecap="butt" d="m327.0838 239.45152l1.9234009 -7.6935883l7.693573 -1.9234009l-9.616974 9.616989l-253.59561 0l0 -57.700775l263.2126 0l0 48.083786" fill-rule="nonzero"></path><path fill="#000000" d="m101.72746 215.39264l0 -17.046875l-6.359375 0l0 -2.28125l15.3125 0l0 2.28125l-6.390625 0l0 17.046875l-2.5625 0zm20.235825 0l0 -2.0625q-1.625 2.375 -4.4375 2.375q-1.234375 0 -2.3125 -0.46875q-1.078125 -0.484375 -1.609375 -1.1875q-0.515625 -0.71875 -0.71875 -1.765625q-0.140625 -0.703125 -0.140625 -2.21875l0 -8.671875l2.359375 0l0 7.765625q0 1.859375 0.15625 2.5q0.21875 0.9375 0.9375 1.46875q0.734375 0.53125 1.796875 0.53125q1.078125 0 2.0 -0.546875q0.9375 -0.546875 1.328125 -1.484375q0.390625 -0.9375 0.390625 -2.734375l0 -7.5l2.375 0l0 14.0l-2.125 0zm5.621811 0l0 -14.0l2.140625 0l0 2.125q0.8125 -1.5 1.5 -1.96875q0.703125 -0.46875 1.53125 -0.46875q1.203125 0 2.4375 0.765625l-0.8125 2.203125q-0.875 -0.515625 -1.75 -0.515625q-0.765625 0 -1.390625 0.46875q-0.625 0.46875 -0.890625 1.296875q-0.390625 1.265625 -0.390625 2.765625l0 7.328125l-2.375 0zm14.0954895 -2.125l0.328125 2.09375q-1.0 0.21875 -1.78125 0.21875q-1.296875 0 -2.015625 -0.40625q-0.703125 -0.421875 -1.0 -1.078125q-0.28125 -0.671875 -0.28125 -2.796875l0 -8.0625l-1.75 0l0 -1.84375l1.75 0l0 -3.46875l2.359375 -1.421875l0 4.890625l2.390625 0l0 1.84375l-2.390625 0l0 8.1875q0 1.015625 0.125 1.3125q0.125 0.28125 0.40625 0.453125q0.28125 0.171875 0.8125 0.171875q0.390625 0 1.046875 -0.09375zm2.171585 2.125l0 -19.328125l2.359375 0l0 19.328125l-2.359375 0zm15.547165 -4.515625l2.453125 0.3125q-0.578125 2.140625 -2.15625 3.328125q-1.5625 1.1875 -4.0 1.1875q-3.0625 0 -4.875 -1.890625q-1.796875 -1.890625 -1.796875 -5.296875q0 -3.546875 1.8125 -5.484375q1.828125 -1.953125 4.734375 -1.953125q2.8125 0 4.578125 1.90625q1.78125 1.90625 1.78125 5.375q0 0.21875 -0.015625 0.640625l-10.4375 0q0.140625 2.296875 1.3125 3.53125q1.171875 1.21875 2.921875 1.21875q1.3125 0 2.234375 -0.671875q0.921875 -0.6875 1.453125 -2.203125zm-7.78125 -3.828125l7.8125 0q-0.15625 -1.765625 -0.890625 -2.65625q-1.140625 -1.359375 -2.953125 -1.359375q-1.625 0 -2.75 1.09375q-1.109375 1.09375 -1.21875 2.921875zm12.074936 4.171875l2.34375 -0.375q0.203125 1.40625 1.109375 2.15625q0.90625 0.75 2.515625 0.75q1.640625 0 2.421875 -0.65625q0.796875 -0.671875 0.796875 -1.5625q0 -0.8125 -0.6875 -1.265625q-0.5 -0.3125 -2.4375 -0.8125q-2.609375 -0.65625 -3.625 -1.125q-1.0 -0.484375 -1.53125 -1.328125q-0.515625 -0.859375 -0.515625 -1.890625q0 -0.9375 0.421875 -1.734375q0.4375 -0.796875 1.1875 -1.328125q0.546875 -0.40625 1.5 -0.6875q0.953125 -0.28125 2.046875 -0.28125q1.65625 0 2.890625 0.46875q1.25 0.46875 1.84375 1.28125q0.59375 0.8125 0.828125 2.171875l-2.328125 0.3125q-0.15625 -1.078125 -0.921875 -1.671875q-0.75 -0.609375 -2.140625 -0.609375q-1.625 0 -2.328125 0.546875q-0.703125 0.53125 -0.703125 1.25q0 0.46875 0.296875 0.828125q0.28125 0.390625 0.90625 0.640625q0.359375 0.125 2.09375 0.609375q2.515625 0.671875 3.515625 1.09375q1.0 0.421875 1.5625 1.25q0.5625 0.8125 0.5625 2.03125q0 1.1875 -0.6875 2.234375q-0.6875 1.046875 -2.0 1.625q-1.296875 0.5625 -2.953125 0.5625q-2.71875 0 -4.15625 -1.125q-1.4375 -1.140625 -1.828125 -3.359375zm21.640335 4.171875l0 -19.328125l2.359375 0l0 19.328125l-2.359375 0zm5.078415 -7.0q0 -3.890625 2.171875 -5.765625q1.796875 -1.546875 4.40625 -1.546875q2.875 0 4.703125 1.890625q1.84375 1.890625 1.84375 5.21875q0 2.703125 -0.8125 4.265625q-0.8125 1.546875 -2.359375 2.40625q-1.546875 0.84375 -3.375 0.84375q-2.953125 0 -4.765625 -1.875q-1.8125 -1.890625 -1.8125 -5.4375zm2.4375 0q0 2.6875 1.171875 4.03125q1.1875 1.328125 2.96875 1.328125q1.765625 0 2.9375 -1.34375q1.171875 -1.34375 1.171875 -4.09375q0 -2.59375 -1.1875 -3.9375q-1.171875 -1.34375 -2.921875 -1.34375q-1.78125 0 -2.96875 1.34375q-1.171875 1.328125 -1.171875 4.015625zm17.168686 7.0l-5.328125 -14.0l2.5 0l3.015625 8.390625q0.484375 1.34375 0.890625 2.8125q0.3125 -1.109375 0.890625 -2.65625l3.109375 -8.546875l2.4375 0l-5.296875 14.0l-2.21875 0zm19.015625 -4.515625l2.453125 0.3125q-0.578125 2.140625 -2.15625 3.328125q-1.5625 1.1875 -4.0 1.1875q-3.0625 0 -4.875 -1.890625q-1.796875 -1.890625 -1.796875 -5.296875q0 -3.546875 1.8125 -5.484375q1.828125 -1.953125 4.734375 -1.953125q2.8125 0 4.578125 1.90625q1.78125 1.90625 1.78125 5.375q0 0.21875 -0.015625 0.640625l-10.4375 0q0.140625 2.296875 1.3125 3.53125q1.171875 1.21875 2.921875 1.21875q1.3125 0 2.234375 -0.671875q0.921875 -0.6875 1.453125 -2.203125zm-7.78125 -3.828125l7.8125 0q-0.15625 -1.765625 -0.890625 -2.65625q-1.140625 -1.359375 -2.953125 -1.359375q-1.625 0 -2.75 1.09375q-1.109375 1.09375 -1.21875 2.921875zm12.074936 4.171875l2.34375 -0.375q0.203125 1.40625 1.109375 2.15625q0.90625 0.75 2.515625 0.75q1.640625 0 2.421875 -0.65625q0.796875 -0.671875 0.796875 -1.5625q0 -0.8125 -0.6875 -1.265625q-0.5 -0.3125 -2.4375 -0.8125q-2.609375 -0.65625 -3.625 -1.125q-1.0 -0.484375 -1.53125 -1.328125q-0.515625 -0.859375 -0.515625 -1.890625q0 -0.9375 0.421875 -1.734375q0.4375 -0.796875 1.1875 -1.328125q0.546875 -0.40625 1.5 -0.6875q0.953125 -0.28125 2.046875 -0.28125q1.65625 0 2.890625 0.46875q1.25 0.46875 1.84375 1.28125q0.59375 0.8125 0.828125 2.171875l-2.328125 0.3125q-0.15625 -1.078125 -0.921875 -1.671875q-0.75 -0.609375 -2.140625 -0.609375q-1.625 0 -2.328125 0.546875q-0.703125 0.53125 -0.703125 1.25q0 0.46875 0.296875 0.828125q0.28125 0.390625 0.90625 0.640625q0.359375 0.125 2.09375 0.609375q2.515625 0.671875 3.515625 1.09375q1.0 0.421875 1.5625 1.25q0.5625 0.8125 0.5625 2.03125q0 1.1875 -0.6875 2.234375q-0.6875 1.046875 -2.0 1.625q-1.296875 0.5625 -2.953125 0.5625q-2.71875 0 -4.15625 -1.125q-1.4375 -1.140625 -1.828125 -3.359375zm21.68721 9.53125l0 -19.359375l2.1562347 0l0 1.8125q0.765625 -1.0625 1.71875 -1.59375q0.96875 -0.53125 2.34375 -0.53125q1.796875 0 3.15625 0.921875q1.375 0.921875 2.078125 2.609375q0.703125 1.671875 0.703125 3.671875q0 2.15625 -0.78125 3.875q-0.765625 1.71875 -2.234375 2.640625q-1.46875 0.90625 -3.09375 0.90625q-1.1875 0 -2.125 -0.5q-0.9375 -0.5 -1.546875 -1.265625l0 6.8125l-2.3749847 0zm2.1406097 -12.28125q0 2.703125 1.09375 4.0q1.109375 1.28125 2.65625 1.28125q1.578125 0 2.703125 -1.328125q1.140625 -1.34375 1.140625 -4.15625q0 -2.671875 -1.109375 -4.0q-1.09375 -1.328125 -2.625 -1.328125q-1.515625 0 -2.6875 1.421875q-1.171875 1.40625 -1.171875 4.109375zm12.699951 -9.671875l0 -2.734375l2.375 0l0 2.734375l-2.375 0zm0 16.59375l0 -14.0l2.375 0l0 14.0l-2.375 0zm4.6565247 0l0 -1.921875l8.90625 -10.234375q-1.515625 0.078125 -2.671875 0.078125l-5.703125 0l0 -1.921875l11.4375 0l0 1.5625l-7.578125 8.890625l-1.46875 1.625q1.59375 -0.125 3.0 -0.125l6.46875 0l0 2.046875l-12.390625 0zm13.328125 0l0 -1.921875l8.90625 -10.234375q-1.515625 0.078125 -2.671875 0.078125l-5.703125 0l0 -1.921875l11.4375 0l0 1.5625l-7.578125 8.890625l-1.46875 1.625q1.59375 -0.125 3.0 -0.125l6.46875 0l0 2.046875l-12.390625 0zm23.71875 -1.734375q-1.328125 1.125 -2.546875 1.59375q-1.21875 0.453125 -2.609375 0.453125q-2.3125 0 -3.5625 -1.125q-1.234375 -1.125 -1.234375 -2.875q0 -1.03125 0.46875 -1.875q0.46875 -0.859375 1.21875 -1.375q0.765625 -0.515625 1.71875 -0.78125q0.703125 -0.171875 2.109375 -0.34375q2.875 -0.34375 4.234375 -0.828125q0.015625 -0.484375 0.015625 -0.609375q0 -1.453125 -0.671875 -2.046875q-0.90625 -0.8125 -2.703125 -0.8125q-1.671875 0 -2.46875 0.59375q-0.796875 0.578125 -1.1875 2.078125l-2.3125 -0.3125q0.3125 -1.5 1.03125 -2.40625q0.734375 -0.921875 2.09375 -1.40625q1.375 -0.5 3.1875 -0.5q1.796875 0 2.90625 0.421875q1.125 0.421875 1.640625 1.0625q0.53125 0.640625 0.75 1.609375q0.125 0.609375 0.125 2.1875l0 3.171875q0 3.296875 0.140625 4.1875q0.15625 0.875 0.609375 1.671875l-2.484375 0q-0.375 -0.734375 -0.46875 -1.734375zm-0.203125 -5.296875q-1.296875 0.53125 -3.875 0.90625q-1.46875 0.203125 -2.078125 0.46875q-0.59375 0.265625 -0.9375 0.78125q-0.328125 0.5 -0.328125 1.125q0 0.9375 0.71875 1.578125q0.71875 0.625 2.109375 0.625q1.375 0 2.4375 -0.59375q1.0625 -0.609375 1.578125 -1.640625q0.375 -0.8125 0.375 -2.375l0 -0.875z" fill-rule="nonzero"></path><path fill="#000000" fill-opacity="0.0" d="m73.48819 282.70822l263.2126 0l0 48.08377l-9.616974 9.617004l-253.59561 0z" fill-rule="nonzero"></path><path fill="#000000" fill-opacity="0.0" d="m327.0838 340.409l1.9234009 -7.6936035l7.693573 -1.9234009z" fill-rule="nonzero"></path><path fill="#000000" fill-opacity="0.0" d="m327.0838 340.409l1.9234009 -7.6936035l7.693573 -1.9234009l-9.616974 9.617004l-253.59561 0l0 -57.700775l263.2126 0l0 48.08377" fill-rule="nonzero"></path><path fill="#000000" fill-opacity="0.2" d="m327.0838 340.409l1.9234009 -7.6936035l7.693573 -1.9234009z" fill-rule="nonzero"></path><path stroke="#999999" stroke-width="1.0" stroke-linejoin="round" stroke-linecap="butt" d="m327.0838 340.409l1.9234009 -7.6936035l7.693573 -1.9234009l-9.616974 9.617004l-253.59561 0l0 -57.700775l263.2126 0l0 48.08377" fill-rule="nonzero"></path><path fill="#000000" d="m114.28721 316.3501l0 -19.328125l2.5625 0l0 19.328125l-2.5625 0zm14.030663 0l0 -19.328125l2.359375 0l0 19.328125l-2.359375 0zm5.078415 -7.0q0 -3.890625 2.171875 -5.765625q1.796875 -1.546875 4.40625 -1.546875q2.875 0 4.703125 1.890625q1.84375 1.890625 1.84375 5.21875q0 2.703125 -0.8125 4.265625q-0.8125 1.546875 -2.359375 2.40625q-1.546875 0.84375 -3.375 0.84375q-2.953125 0 -4.765625 -1.875q-1.8125 -1.890625 -1.8125 -5.4375zm2.4375 0q0 2.6875 1.171875 4.03125q1.1875 1.328125 2.96875 1.328125q1.765625 0 2.9375 -1.34375q1.171875 -1.34375 1.171875 -4.09375q0 -2.59375 -1.1875 -3.9375q-1.171875 -1.34375 -2.921875 -1.34375q-1.78125 0 -2.96875 1.34375q-1.171875 1.328125 -1.171875 4.015625zm17.168686 7.0l-5.328125 -14.0l2.5 0l3.015625 8.390625q0.484375 1.34375 0.890625 2.8125q0.3125 -1.109375 0.890625 -2.65625l3.109375 -8.546875l2.4375 0l-5.296875 14.0l-2.21875 0zm19.015625 -4.515625l2.453125 0.3125q-0.578125 2.140625 -2.15625 3.328125q-1.5625 1.1875 -4.0 1.1875q-3.0625 0 -4.875 -1.890625q-1.796875 -1.890625 -1.796875 -5.296875q0 -3.546875 1.8125 -5.484375q1.828125 -1.953125 4.734375 -1.953125q2.8125 0 4.578125 1.90625q1.78125 1.90625 1.78125 5.375q0 0.21875 -0.015625 0.640625l-10.4375 0q0.140625 2.296875 1.3125 3.53125q1.171875 1.21875 2.921875 1.21875q1.3125 0 2.234375 -0.671875q0.921875 -0.6875 1.453125 -2.203125zm-7.78125 -3.828125l7.8125 0q-0.15625 -1.765625 -0.890625 -2.65625q-1.140625 -1.359375 -2.953125 -1.359375q-1.625 0 -2.75 1.09375q-1.109375 1.09375 -1.21875 2.921875zm20.434021 8.34375l0 -14.0l2.125 0l0 1.96875q0.65625 -1.03125 1.75 -1.65625q1.09375 -0.625 2.484375 -0.625q1.5625 0 2.546875 0.640625q1.0 0.640625 1.421875 1.8125q1.65625 -2.453125 4.3125 -2.453125q2.09375 0 3.203125 1.15625q1.125 1.140625 1.125 3.546875l0 9.609375l-2.359375 0l0 -8.8125q0 -1.4375 -0.234375 -2.0625q-0.21875 -0.625 -0.828125 -1.0q-0.609375 -0.390625 -1.421875 -0.390625q-1.484375 0 -2.46875 0.984375q-0.96875 0.984375 -0.96875 3.140625l0 8.140625l-2.375 0l0 -9.09375q0 -1.578125 -0.578125 -2.375q-0.578125 -0.796875 -1.890625 -0.796875q-1.0 0 -1.859375 0.53125q-0.84375 0.53125 -1.234375 1.546875q-0.375 1.015625 -0.375 2.921875l0 7.265625l-2.375 0zm22.09549 5.390625l-0.265625 -2.21875q0.78125 0.203125 1.359375 0.203125q0.796875 0 1.265625 -0.265625q0.484375 -0.265625 0.78125 -0.734375q0.21875 -0.359375 0.71875 -1.765625q0.078125 -0.203125 0.21875 -0.578125l-5.3125 -14.03125l2.5625 0l2.90625 8.109375q0.5625 1.546875 1.015625 3.234375q0.40625 -1.625 0.96875 -3.1875l3.0 -8.15625l2.375 0l-5.328125 14.234375q-0.859375 2.3125 -1.328125 3.1875q-0.640625 1.171875 -1.453125 1.71875q-0.8125 0.546875 -1.953125 0.546875q-0.6875 0 -1.53125 -0.296875zm26.030975 -7.515625l0.328125 2.09375q-1.0 0.21875 -1.78125 0.21875q-1.296875 0 -2.015625 -0.40625q-0.703125 -0.421875 -1.0 -1.078125q-0.28125 -0.671875 -0.28125 -2.796875l0 -8.0625l-1.75 0l0 -1.84375l1.75 0l0 -3.46875l2.359375 -1.421875l0 4.890625l2.390625 0l0 1.84375l-2.390625 0l0 8.1875q0 1.015625 0.125 1.3125q0.125 0.28125 0.40625 0.453125q0.28125 0.171875 0.8125 0.171875q0.390625 0 1.046875 -0.09375zm11.39032 2.125l0 -2.0625q-1.625 2.375 -4.4375 2.375q-1.234375 0 -2.3125 -0.46875q-1.078125 -0.484375 -1.609375 -1.1875q-0.515625 -0.71875 -0.71875 -1.765625q-0.140625 -0.703125 -0.140625 -2.21875l0 -8.671875l2.359375 0l0 7.765625q0 1.859375 0.15625 2.5q0.21875 0.9375 0.9375 1.46875q0.734375 0.53125 1.796875 0.53125q1.078125 0 2.0 -0.546875q0.9375 -0.546875 1.328125 -1.484375q0.390625 -0.9375 0.390625 -2.734375l0 -7.5l2.375 0l0 14.0l-2.125 0zm5.621826 0l0 -14.0l2.140625 0l0 2.125q0.8125 -1.5 1.5 -1.96875q0.703125 -0.46875 1.53125 -0.46875q1.203125 0 2.4375 0.765625l-0.8125 2.203125q-0.875 -0.515625 -1.75 -0.515625q-0.765625 0 -1.390625 0.46875q-0.625 0.46875 -0.890625 1.296875q-0.390625 1.265625 -0.390625 2.765625l0 7.328125l-2.375 0zm14.0954895 -2.125l0.328125 2.09375q-1.0 0.21875 -1.78125 0.21875q-1.296875 0 -2.015625 -0.40625q-0.703125 -0.421875 -1.0 -1.078125q-0.28125 -0.671875 -0.28125 -2.796875l0 -8.0625l-1.75 0l0 -1.84375l1.75 0l0 -3.46875l2.359375 -1.421875l0 4.890625l2.390625 0l0 1.84375l-2.390625 0l0 8.1875q0 1.015625 0.125 1.3125q0.125 0.28125 0.40625 0.453125q0.28125 0.171875 0.8125 0.171875q0.390625 0 1.046875 -0.09375zm2.1715698 2.125l0 -19.328125l2.359375 0l0 19.328125l-2.359375 0zm15.54718 -4.515625l2.453125 0.3125q-0.578125 2.140625 -2.15625 3.328125q-1.5625 1.1875 -4.0 1.1875q-3.0625 0 -4.875 -1.890625q-1.796875 -1.890625 -1.796875 -5.296875q0 -3.546875 1.8125 -5.484375q1.828125 -1.953125 4.734375 -1.953125q2.8125 0 4.578125 1.90625q1.78125 1.90625 1.78125 5.375q0 0.21875 -0.015625 0.640625l-10.4375 0q0.140625 2.296875 1.3125 3.53125q1.171875 1.21875 2.921875 1.21875q1.3125 0 2.234375 -0.671875q0.921875 -0.6875 1.453125 -2.203125zm-7.78125 -3.828125l7.8125 0q-0.15625 -1.765625 -0.890625 -2.65625q-1.140625 -1.359375 -2.953125 -1.359375q-1.625 0 -2.75 1.09375q-1.109375 1.09375 -1.21875 2.921875zm12.074921 4.171875l2.34375 -0.375q0.203125 1.40625 1.109375 2.15625q0.90625 0.75 2.515625 0.75q1.640625 0 2.421875 -0.65625q0.796875 -0.671875 0.796875 -1.5625q0 -0.8125 -0.6875 -1.265625q-0.5 -0.3125 -2.4375 -0.8125q-2.609375 -0.65625 -3.625 -1.125q-1.0 -0.484375 -1.53125 -1.328125q-0.515625 -0.859375 -0.515625 -1.890625q0 -0.9375 0.421875 -1.734375q0.4375 -0.796875 1.1875 -1.328125q0.546875 -0.40625 1.5 -0.6875q0.953125 -0.28125 2.046875 -0.28125q1.65625 0 2.890625 0.46875q1.25 0.46875 1.84375 1.28125q0.59375 0.8125 0.828125 2.171875l-2.328125 0.3125q-0.15625 -1.078125 -0.921875 -1.671875q-0.75 -0.609375 -2.140625 -0.609375q-1.625 0 -2.328125 0.546875q-0.703125 0.53125 -0.703125 1.25q0 0.46875 0.296875 0.828125q0.28125 0.390625 0.90625 0.640625q0.359375 0.125 2.09375 0.609375q2.515625 0.671875 3.515625 1.09375q1.0 0.421875 1.5625 1.25q0.5625 0.8125 0.5625 2.03125q0 1.1875 -0.6875 2.234375q-0.6875 1.046875 -2.0 1.625q-1.296875 0.5625 -2.953125 0.5625q-2.71875 0 -4.15625 -1.125q-1.4375 -1.140625 -1.828125 -3.359375z" fill-rule="nonzero"></path><path fill="#000000" fill-opacity="0.0" d="m73.48819 382.11285l263.2126 0l0 48.0838l-9.616974 9.617004l-253.59561 0z" fill-rule="nonzero"></path><path fill="#000000" fill-opacity="0.0" d="m327.0838 439.81366l1.9234009 -7.6936035l7.693573 -1.9234009z" fill-rule="nonzero"></path><path fill="#000000" fill-opacity="0.0" d="m327.0838 439.81366l1.9234009 -7.6936035l7.693573 -1.9234009l-9.616974 9.617004l-253.59561 0l0 -57.700806l263.2126 0l0 48.0838" fill-rule="nonzero"></path><path fill="#000000" fill-opacity="0.2" d="m327.0838 439.81366l1.9234009 -7.6936035l7.693573 -1.9234009z" fill-rule="nonzero"></path><path stroke="#999999" stroke-width="1.0" stroke-linejoin="round" stroke-linecap="butt" d="m327.0838 439.81366l1.9234009 -7.6936035l7.693573 -1.9234009l-9.616974 9.617004l-253.59561 0l0 -57.700806l263.2126 0l0 48.0838" fill-rule="nonzero"></path><path fill="#000000" d="m107.829895 415.75476l0 -19.328125l3.859375 0l4.5625 13.6875q0.640625 1.90625 0.921875 2.859375q0.34375 -1.0625 1.03125 -3.09375l4.625 -13.453125l3.453125 0l0 19.328125l-2.46875 0l0 -16.171875l-5.625 16.171875l-2.296875 0l-5.59375 -16.453125l0 16.453125l-2.46875 0zm21.87674 5.390625l-0.265625 -2.21875q0.78125 0.203125 1.359375 0.203125q0.796875 0 1.265625 -0.265625q0.484375 -0.265625 0.78125 -0.734375q0.21875 -0.359375 0.71875 -1.765625q0.078125 -0.203125 0.21875 -0.578125l-5.3125 -14.03125l2.5625 0l2.90625 8.109375q0.5625 1.546875 1.015625 3.234375q0.40625 -1.625 0.96875 -3.1875l3.0 -8.15625l2.375 0l-5.328125 14.234375q-0.859375 2.3125 -1.328125 3.1875q-0.640625 1.171875 -1.453125 1.71875q-0.8125 0.546875 -1.953125 0.546875q-0.6875 0 -1.53125 -0.296875zm20.84346 -0.03125l0 -19.359375l2.15625 0l0 1.8125q0.765625 -1.0625 1.71875 -1.59375q0.96875 -0.53125 2.34375 -0.53125q1.796875 0 3.15625 0.921875q1.375 0.921875 2.078125 2.609375q0.703125 1.671875 0.703125 3.671875q0 2.15625 -0.78125 3.875q-0.765625 1.71875 -2.234375 2.640625q-1.46875 0.90625 -3.09375 0.90625q-1.1875 0 -2.125 -0.5q-0.9375 -0.5 -1.546875 -1.265625l0 6.8125l-2.375 0zm2.140625 -12.28125q0 2.703125 1.09375 4.0q1.109375 1.28125 2.65625 1.28125q1.578125 0 2.703125 -1.328125q1.140625 -1.34375 1.140625 -4.15625q0 -2.671875 -1.109375 -4.0q-1.09375 -1.328125 -2.625 -1.328125q-1.515625 0 -2.6875 1.421875q-1.171875 1.40625 -1.171875 4.109375zm12.699936 -9.671875l0 -2.734375l2.375 0l0 2.734375l-2.375 0zm0 16.59375l0 -14.0l2.375 0l0 14.0l-2.375 0zm4.65654 0l0 -1.921875l8.90625 -10.234375q-1.515625 0.078125 -2.671875 0.078125l-5.703125 0l0 -1.921875l11.4375 0l0 1.5625l-7.578125 8.890625l-1.46875 1.625q1.59375 -0.125 3.0 -0.125l6.46875 0l0 2.046875l-12.390625 0zm13.328125 0l0 -1.921875l8.90625 -10.234375q-1.515625 0.078125 -2.671875 0.078125l-5.703125 0l0 -1.921875l11.4375 0l0 1.5625l-7.578125 8.890625l-1.46875 1.625q1.59375 -0.125 3.0 -0.125l6.46875 0l0 2.046875l-12.390625 0zm23.71875 -1.734375q-1.328125 1.125 -2.546875 1.59375q-1.21875 0.453125 -2.609375 0.453125q-2.3125 0 -3.5625 -1.125q-1.234375 -1.125 -1.234375 -2.875q0 -1.03125 0.46875 -1.875q0.46875 -0.859375 1.21875 -1.375q0.765625 -0.515625 1.71875 -0.78125q0.703125 -0.171875 2.109375 -0.34375q2.875 -0.34375 4.234375 -0.828125q0.015625 -0.484375 0.015625 -0.609375q0 -1.453125 -0.671875 -2.046875q-0.90625 -0.8125 -2.703125 -0.8125q-1.671875 0 -2.46875 0.59375q-0.796875 0.578125 -1.1875 2.078125l-2.3125 -0.3125q0.3125 -1.5 1.03125 -2.40625q0.734375 -0.921875 2.09375 -1.40625q1.375 -0.5 3.1875 -0.5q1.796875 0 2.90625 0.421875q1.125 0.421875 1.640625 1.0625q0.53125 0.640625 0.75 1.609375q0.125 0.609375 0.125 2.1875l0 3.171875q0 3.296875 0.140625 4.1875q0.15625 0.875 0.609375 1.671875l-2.484375 0q-0.375 -0.734375 -0.46875 -1.734375zm-0.203125 -5.296875q-1.296875 0.53125 -3.875 0.90625q-1.46875 0.203125 -2.078125 0.46875q-0.59375 0.265625 -0.9375 0.78125q-0.328125 0.5 -0.328125 1.125q0 0.9375 0.71875 1.578125q0.71875 0.625 2.109375 0.625q1.375 0 2.4375 -0.59375q1.0625 -0.609375 1.578125 -1.640625q0.375 -0.8125 0.375 -2.375l0 -0.875zm13.309021 -9.5625l0 -2.734375l2.375 0l0 2.734375l-2.375 0zm0 16.59375l0 -14.0l2.375 0l0 14.0l-2.375 0zm4.953415 -4.171875l2.34375 -0.375q0.203125 1.40625 1.109375 2.15625q0.90625 0.75 2.515625 0.75q1.640625 0 2.421875 -0.65625q0.796875 -0.671875 0.796875 -1.5625q0 -0.8125 -0.6875 -1.265625q-0.5 -0.3125 -2.4375 -0.8125q-2.609375 -0.65625 -3.625 -1.125q-1.0 -0.484375 -1.53125 -1.328125q-0.515625 -0.859375 -0.515625 -1.890625q0 -0.9375 0.421875 -1.734375q0.4375 -0.796875 1.1875 -1.328125q0.546875 -0.40625 1.5 -0.6875q0.953125 -0.28125 2.046875 -0.28125q1.65625 0 2.890625 0.46875q1.25 0.46875 1.84375 1.28125q0.59375 0.8125 0.828125 2.171875l-2.328125 0.3125q-0.15625 -1.078125 -0.921875 -1.671875q-0.75 -0.609375 -2.140625 -0.609375q-1.625 0 -2.328125 0.546875q-0.703125 0.53125 -0.703125 1.25q0 0.46875 0.296875 0.828125q0.28125 0.390625 0.90625 0.640625q0.359375 0.125 2.09375 0.609375q2.515625 0.671875 3.515625 1.09375q1.0 0.421875 1.5625 1.25q0.5625 0.8125 0.5625 2.03125q0 1.1875 -0.6875 2.234375q-0.6875 1.046875 -2.0 1.625q-1.296875 0.5625 -2.953125 0.5625q-2.71875 0 -4.15625 -1.125q-1.4375 -1.140625 -1.828125 -3.359375zm21.24971 5.328125l2.3125 0.34375q0.140625 1.078125 0.796875 1.5625q0.890625 0.65625 2.421875 0.65625q1.640625 0 2.53125 -0.65625q0.90625 -0.65625 1.21875 -1.84375q0.1875 -0.734375 0.171875 -3.046875q-1.5625 1.828125 -3.875 1.828125q-2.890625 0 -4.46875 -2.078125q-1.578125 -2.09375 -1.578125 -5.0q0 -2.0 0.71875 -3.6875q0.734375 -1.703125 2.109375 -2.625q1.375 -0.921875 3.234375 -0.921875q2.46875 0 4.0781097 2.0l0 -1.6875l2.1875 0l0 12.09375q0 3.28125 -0.671875 4.640625q-0.65625 1.359375 -2.1093597 2.15625q-1.4375 0.796875 -3.546875 0.796875q-2.5 0 -4.046875 -1.140625q-1.53125 -1.125 -1.484375 -3.390625zm1.96875 -8.40625q0 2.75 1.09375 4.015625q1.09375 1.265625 2.734375 1.265625q1.640625 0 2.75 -1.25q1.1093597 -1.265625 1.1093597 -3.953125q0 -2.578125 -1.1406097 -3.875q-1.140625 -1.3125 -2.75 -1.3125q-1.578125 0 -2.6875 1.296875q-1.109375 1.28125 -1.109375 3.8125zm12.403061 0.25q0 -3.890625 2.171875 -5.765625q1.796875 -1.546875 4.40625 -1.546875q2.875 0 4.703125 1.890625q1.84375 1.890625 1.84375 5.21875q0 2.703125 -0.8125 4.265625q-0.8125 1.546875 -2.359375 2.40625q-1.546875 0.84375 -3.375 0.84375q-2.953125 0 -4.765625 -1.875q-1.8125 -1.890625 -1.8125 -5.4375zm2.4375 0q0 2.6875 1.171875 4.03125q1.1875 1.328125 2.96875 1.328125q1.765625 0 2.9375 -1.34375q1.171875 -1.34375 1.171875 -4.09375q0 -2.59375 -1.1875 -3.9375q-1.171875 -1.34375 -2.921875 -1.34375q-1.78125 0 -2.96875 1.34375q-1.171875 1.328125 -1.171875 4.015625zm12.387421 0q0 -3.890625 2.171875 -5.765625q1.796875 -1.546875 4.40625 -1.546875q2.875 0 4.703125 1.890625q1.84375 1.890625 1.84375 5.21875q0 2.703125 -0.8125 4.265625q-0.8125 1.546875 -2.359375 2.40625q-1.546875 0.84375 -3.375 0.84375q-2.953125 0 -4.765625 -1.875q-1.8125 -1.890625 -1.8125 -5.4375zm2.4375 0q0 2.6875 1.171875 4.03125q1.1875 1.328125 2.96875 1.328125q1.765625 0 2.9375 -1.34375q1.171875 -1.34375 1.171875 -4.09375q0 -2.59375 -1.1875 -3.9375q-1.171875 -1.34375 -2.921875 -1.34375q-1.78125 0 -2.96875 1.34375q-1.171875 1.328125 -1.171875 4.015625zm22.356201 7.0l0 -1.765625q-1.328125 2.078125 -3.90625 2.078125q-1.671875 0 -3.078125 -0.921875q-1.40625 -0.921875 -2.1875 -2.578125q-0.765625 -1.65625 -0.765625 -3.796875q0 -2.09375 0.703125 -3.796875q0.703125 -1.71875 2.09375 -2.625q1.390625 -0.90625 3.125 -0.90625q1.265625 0 2.25 0.53125q0.984375 0.53125 1.609375 1.390625l0 -6.9375l2.359375 0l0 19.328125l-2.203125 0zm-7.5 -6.984375q0 2.6875 1.125 4.015625q1.140625 1.328125 2.6875 1.328125q1.5625 0 2.640625 -1.265625q1.09375 -1.265625 1.09375 -3.890625q0 -2.859375 -1.109375 -4.203125q-1.109375 -1.359375 -2.734375 -1.359375q-1.578125 0 -2.640625 1.296875q-1.0625 1.296875 -1.0625 4.078125z" fill-rule="nonzero"></path><path fill="#000000" fill-opacity="0.0" d="m365.2546 206.45932l114.74014 -0.6299286" fill-rule="nonzero"></path><path stroke="#595959" stroke-width="2.0" stroke-linejoin="round" stroke-linecap="butt" d="m365.2546 206.45932l102.740295 -0.56404114" fill-rule="evenodd"></path><path fill="#595959" stroke="#595959" stroke-width="2.0" stroke-linecap="butt" d="m468.01306 209.19868l9.057922 -3.353241l-9.094177 -3.2535858z" fill-rule="evenodd"></path><path fill="#000000" fill-opacity="0.0" d="m365.2546 414.82153l114.74014 -0.62994385" fill-rule="nonzero"></path><path stroke="#595959" stroke-width="2.0" stroke-linejoin="round" stroke-linecap="butt" d="m365.2546 414.82153l102.740295 -0.5640564" fill-rule="evenodd"></path><path fill="#595959" stroke="#595959" stroke-width="2.0" stroke-linecap="butt" d="m468.01306 417.56088l9.057922 -3.353241l-9.094177 -3.2535706z" fill-rule="evenodd"></path></g></svg>

